<?xml version="1.0" encoding="utf-8"?>
<!-- Generator: Adobe Illustrator 18.0.0, SVG Export Plug-In . SVG Version: 6.00 Build 0)  -->
<!DOCTYPE svg PUBLIC "-//W3C//DTD SVG 1.1//EN" "http://www.w3.org/Graphics/SVG/1.1/DTD/svg11.dtd">
<svg version="1.1" id="Layer_1" xmlns="http://www.w3.org/2000/svg" xmlns:xlink="http://www.w3.org/1999/xlink" x="0px" y="0px"
	 viewBox="441 0 585 612" enable-background="new 441 0 585 612" xml:space="preserve">
<path fill="#EBE8DC" d="M732,24.2c-155.1,0.5-278,121.8-278.1,275.6c-0.1,154.8,121.9,277.5,276.1,277.6
	c153.6,0,275.7-122.2,277.4-274.3C1008.9,149.5,882.4,23.7,732,24.2z M730.5,548.5C593.8,548.5,483,437.7,483,301
	S593.8,53.5,730.5,53.5S978,164.3,978,301S867.2,548.5,730.5,548.5z"/>
<path fill="#EBE8DC" d="M869.9,238.7L726.6,382L590.9,239.4l0,0c-6.5,6.5-12.6,12.5-18.1,17.9c51.8,52.7,104.4,106.4,157.5,160.4
	c53-53.8,105.9-107.4,158.1-160.4C882.5,251.3,876.4,245.2,869.9,238.7z"/>
<polygon fill="#EBE8DC" points="590.9,239.4 594.3,235.7 736.7,384.7 728.3,402 590.9,257 "/>
</svg>
