<?xml version="1.0" encoding="utf-8"?>
<!-- Generator: Adobe Illustrator 19.0.0, SVG Export Plug-In . SVG Version: 6.00 Build 0)  -->
<!DOCTYPE svg PUBLIC "-//W3C//DTD SVG 1.1//EN" "http://www.w3.org/Graphics/SVG/1.1/DTD/svg11.dtd">
<svg version="1.1" id="Layer_1" xmlns="http://www.w3.org/2000/svg" xmlns:xlink="http://www.w3.org/1999/xlink" x="0px" y="0px"
	 viewBox="376 -286 792 612" style="enable-background:new 376 -286 792 612;" xml:space="preserve">
<style type="text/css">
	.st0{fill:#FFFFFF;}
</style>
<path class="st0" d="M1109.8,288.2h-62.9c5.2-5.8,8.4-13.4,8.4-21.8V-71.4c0-18-14.7-32.7-32.7-32.7H521.4
	c-18,0-32.7,14.7-32.7,32.7v337.8c0,8.4,3.2,16,8.4,21.8h-62.9c-18,0-32.7,2.5-32.7,5.4c0,3,14.7,6.8,32.6,8.4l54.8,5
	c17.9,1.6,47.3,3,65.2,3h435.9c18,0,47.3-1.3,65.2-3l54.8-5c17.9-1.6,32.6-5.4,32.6-8.4C1142.5,290.7,1127.8,288.2,1109.8,288.2z
	 M1033.5,266.4H510.5V-82.3h523.1V266.4z"/>
<path class="st0" d="M1136.5,314.7H403c-3.3,0-6-2.7-6-6v-15.5c0-3.3,2.7-6,6-6h733.5c3.3,0,6,2.7,6,6v15.5
	C1142.5,312,1139.8,314.7,1136.5,314.7z"/>
</svg>
