<?xml version="1.0" encoding="utf-8"?>
<!-- Generator: Adobe Illustrator 19.0.0, SVG Export Plug-In . SVG Version: 6.00 Build 0)  -->
<!DOCTYPE svg PUBLIC "-//W3C//DTD SVG 1.1//EN" "http://www.w3.org/Graphics/SVG/1.1/DTD/svg11.dtd">
<svg version="1.1" id="Layer_1" xmlns="http://www.w3.org/2000/svg" xmlns:xlink="http://www.w3.org/1999/xlink" x="0px" y="0px"
	 viewBox="376 -286 792 612" style="enable-background:new 376 -286 792 612;" xml:space="preserve">
<style type="text/css">
	.st0{fill:#FFFFFF;}
</style>
<path class="st0" d="M736.9-46.9H505.7c-14.7,0-26.7,12-26.7,26.7v302.4c0,14.7,12,26.7,26.7,26.7h231.3c14.7,0,26.7-12,26.7-26.7
	V-20.2C763.6-34.9,751.6-46.9,736.9-46.9z M745.8,273.3h-249V-11.3h249V273.3z"/>
<path class="st0" d="M894.1,104.3h-53.4c-14.7,0-26.7,12-26.7,26.7v151.2c0,14.7,12,26.7,26.7,26.7h53.4c14.7,0,26.7-12,26.7-26.7
	V131C920.8,116.3,908.8,104.3,894.1,104.3z M915.9,282.2h-96.7L819,131h96.7L915.9,282.2z"/>
</svg>
