<?xml version="1.0" encoding="utf-8"?>
<!-- Generator: Adobe Illustrator 19.1.0, SVG Export Plug-In . SVG Version: 6.00 Build 0)  -->
<svg version="1.1" id="Layer_1" xmlns="http://www.w3.org/2000/svg" xmlns:xlink="http://www.w3.org/1999/xlink" x="0px" y="0px"
	 viewBox="-129 277.8 352.8 239.2" style="enable-background:new -129 277.8 352.8 239.2;" xml:space="preserve">
<style type="text/css">
	.st0{fill:#EBE8DC;}
	.st1{fill:#414143;}
	.st2{fill:#EE5A2B;}
	.st3{fill:#FFFFFF;}
	.st4{fill:none;}
	.st5{enable-background:new    ;}
	.st6{fill:none;stroke:#414143;stroke-width:0.2;stroke-miterlimit:10;}
	.st7{fill:none;stroke:#414143;stroke-width:0.1;stroke-miterlimit:10;}
</style>
<rect x="-691.6" y="247" class="st0" width="270" height="162"/>
<g>
	<path class="st1" d="M-478.5,299.6c1.9-0.5,2.8-1.2,2.9-1.4l0,0c2.4-3.4,0.2-6.9,0-7.2c-0.4-0.4-0.8-0.8-1.2-1.2l0,0
		c-0.7-0.1-1.1,0.4-1.1,0.4c-0.6,1.2-1.2,2.3-2.2,3.1c-0.7,0.4-1.6,0.3-2.3,0c-1-0.4-1.2-1.4-1.2-2.3c-0.1-1.9-0.1-3.7,0.6-5.5
		c0.5-1.3,1-2.7,1.4-4c0.4-1.4,0.5-2.8-0.6-3.9c-0.6-0.6-1.4-0.9-2-1.3c-1.3-0.8-2.8-0.5-3.5,0.8c-3.2-0.6-6.3-0.1-9.2,1.4
		c-2.3,1.2-4.2,2.8-5.2,5.3c-1.1,2.8-1.1,5.6-0.6,8.5c0.3,1.5-0.3,3-1.6,3.5c-0.8,0.3-1.5,0.3-2-0.7c-0.7-1.5-0.4-3-0.1-4.4
		c0.7-2.6,1.5-5.1,2.3-7.6c0.5-1.7,0.3-3.3-1.2-4.4c-0.8-0.6-1.6-1-2.4-1.6c-0.8-0.5-1.1-0.1-1.4,0.6c-0.8,2-1.7,3.9-2.5,5.8
		c-1.4,3.2-3.3,6.1-4.2,9.5c-0.4,1.7-1.3,3.2-2,4.8c-0.1,0-0.1,0-0.2,0c0-0.2-0.1-0.4,0-0.6c0.5-2.3,1-4.6,1.5-6.9
		c0.3-1.2,0.8-2.3,1-3.4c0.6-3-0.8-5.4-3.7-6.2c-0.6-0.2-1-0.2-1.2,0.5c-1.4,5.1-2.8,10.3-3,15.6c-0.1,1.8,0,3.8-1.4,5.3
		c-0.3,0.3-0.9,0.8-1.1,0.7c-0.4-0.2-0.8-0.7-1-1.2c-0.2-0.4-0.1-0.9-0.1-1.3c0.1-3.9,1.3-7.6,2.3-11.4c0.3-1.2,0.5-2.5-0.4-3.4
		c-1-1.1-2.3-1.9-3.6-2.8c-0.9-0.6-1.4-0.1-1.9,0.7c-0.2,0.3-0.5,0.6-0.9,0.7c-1.5,0.3-3.1,0.3-4.6,0.6c-3.6,0.8-6.4,2.8-8.1,6.2
		c-1.5,3.2-1.5,6.5-1.4,9.9c0.1,2.1-1,4.1-2.9,5c-1,0.5-1.6,0.3-1.8-0.8c-0.2-0.9-0.3-1.9-0.3-2.9c0.2-2.9,1-5.6,2-8.4
		c0.3-1,0.7-2,0.6-3c-0.2-2.5-0.9-3.4-4.4-4.3c-0.8-0.2-1.2,0-1.4,0.8c-0.6,3.5-1.3,7.1-1.9,10.6c-0.3,2.3-0.4,4.7-0.6,7
		c-0.1,0.9-1.1,1.8-1.9,1.8c-0.8,0-1.6-0.8-1.5-1.8c0-1.3,0-2.7,0.4-4c0.6-2.2,1.6-4.4,2.3-6.6c0.4-1.2,0.6-2.5,0.7-3.7
		c0.1-2-1.6-4-3.5-4.4c-1.2-0.2-1.5,0-1.4,1.2c0.1,1.8-0.7,3-2.3,3.5c-1,0.3-2.1,0.3-3.2,0.5c-0.9,0.1-1.3-0.2-0.9-1.2
		c0.4-0.8,0-1.3-0.8-1.2c-1.4,0.1-2.8,0.2-4.2,0.5c-1.3,0.2-1.9,1.1-1.6,2.4c0.2,1,0.6,2,0.9,3c0.3,0.8,0.8,1.7,0.8,2.5
		c0,1.9-0.2,3.7-0.5,5.6c-0.4,2.4-1.6,4.4-3.2,6.2c-0.8,0.8-1.4,0.7-1.7-0.4c-0.3-1-0.6-2.1-0.5-3.1c0.3-3.4,0.7-6.8,1.1-10.3
		c0.4-3.2,1.5-6.1,3-8.8c1.2-2.2,1.6-4,0-5.7c-0.7-0.7-1.7-1.2-2.6-1.7c-1.8-1-2.6-0.6-2.9,1.4c0,0.1,0,0.3-0.1,0.4
		c-0.7,3.4-1.5,6.7-2.2,10.1c-0.2,1.2-0.9,1.7-2.1,1.7c-3.2,0-5.6,1.6-7.5,3.9c-3.4,4.2-4.8,9-3.1,14.4c0.2,0.6-0.1,1.5-0.5,2
		c-1.3,1.7-4.4,1.6-5.6-0.3c-1.8-2.7-2.4-5.7-2.3-8.9c0-0.9,0.3-1.4,1.3-1.7c2.2-0.8,4.2-3.9,4.2-6.1c0-1-0.4-1.4-1.4-1.2
		c-0.6,0.1-1.1,0.2-1.7,0.3c-0.8,0.1-1.1-0.3-0.9-1.1c0.2-1,0.4-2.1,0.7-3.1c0.6-2.3,1.3-4.6,1.9-6.9c0.6-2.3-0.6-4.6-2.6-4.9
		c-2.3-0.3-4.6,0.1-6.5,1.4c-3.7,2.6-5.9,6.2-7.2,10.4c-1,3.3-1.6,6.8-2.5,10.1c-1,3.6-2.1,7.1-3.4,10.5c-0.6,1.5-1.6,3.1-2.9,4.1
		c-2.8,2.3-6,2.8-9.7,2.2c-3.5-0.6-6.3-2.1-9-4.3c-1.3-1.1-2.8-2.1-4.2-2.9c-1.3-0.8-2.7-0.1-2.7,1.5c0,1.4,0,2.8,0.3,4.1
		c0.4,1.4,0.8,3.1,1.8,4.1c1.3,1.3,3,2.2,4.6,3.1c3.7,2,7.7,2.7,11.8,2.6c1.4,0,2.9,0,4.2-0.5c3.3-1.2,6.1-3.1,8.2-6.2
		c3-4.5,5.7-9.1,7-14.5c0.5-2.2,0.6-2.2,3-2.1c0.1,0,0.2,0,0.3,0c0.7,0,0.9,0.3,0.9,1c0,1.4,0.1,2.8,0.2,4.3c0.2,3.4,1,6.6,4.2,8.6
		c2.3,1.4,4.6,2.4,7.1,0.9c1-0.5,1.9-1.2,2.7-2c0.6-0.6,1.1-0.6,1.9-0.4c1.8,0.4,3.6,0.8,5.4,0.9c1.2,0,2.6-0.4,3.4-1.1
		c1.3-1.1,2.5-1.3,4.1-1.1c2,0.2,3.8-0.4,5.1-2.2c2.4-3.3,3.6-7.1,4.5-10.9c1-4.1,0.4-3.3,4.3-3.7c0.1,0,0.1,0,0.3,0.1
		c0,0.3,0,0.7-0.1,1c-0.6,2.4-0.4,4.9,0.3,7.2c0.5,1.7,1,3.5,2.8,4.2c2.1,0.9,4.4,1,6.4-0.2c1.1-0.6,1.9-0.5,2.9,0
		c2.2,1.1,4.3,0.7,6.2-0.7c0.8-0.6,1.6-1.1,2.3-1.8c0.6-0.5,1-0.6,1.7-0.2c2.9,1.5,5.9,1.8,8.8,0.1c1.3-0.8,2.5-0.8,3.9-0.2
		c2.3,1,4.4,0.7,6.3-1c0.7-0.6,1.3-0.7,2.2-0.2c1.4,0.8,2.9,0.6,3.8-0.3c1.3-1.3,2-2.9,2.5-4.7c0.6-2.3,1.4-4.5,2.1-6.8
		c0-0.1,0.2-0.2,0.4-0.4c0.5,1.5,0.8,2.8,1.3,4.1c1.4,3.4,4.8,4.3,7.6,2.1c0.8-0.7,1.6-1.4,2.3-2.1c1.1,0.8,2,1.7,3.1,2.1
		c3,1.1,5.9,1,8.7-0.7c0.4-0.3,1.1-0.5,1.5-0.3c0.1,0.1,0.2,0.1,0.3,0.2C-487.3,298.8-482.3,300.3-478.5,299.6z M-606.5,294
		c-0.1,0.5-0.2,1.1-0.4,1.6c-0.2,0.4-0.5,0.8-0.9,0.9c-1.8,0.4-2.1,0.1-1.5-1.7c0.4-1.3,0.8-2.7,1.3-4c0.1-0.4,0.3-0.8,0.6-1
		c0.3-0.3,0.8-0.5,1.1-0.5c0.2,0,0.4,0.6,0.7,0.9C-605.9,291.4-606.2,292.7-606.5,294z M-584.1,306.6c0,1.1,0,2.2-0.1,3.2
		c-0.1,1.6-0.2,1.7-1.8,2.1c-2,0.5-4.1-0.2-4.6-1.8c-0.5-1.6-0.5-3.2-0.2-4.9c0.5-2.6,2.3-4.2,4.2-5.7c0.7-0.5,1.6-0.6,2.6-1
		C-584,301.4-584.1,304-584.1,306.6z M-532.6,291.5c-0.1,1.1-0.4,2.3-0.4,3.4c0,2.1,0,4.3,0.1,6.4c0.1,1-0.1,1.8-1,2.2
		c-1.4,0.6-2.8,1.2-4.2,1.3c-1.7,0.1-2.5-0.8-2.9-2.5c-0.1-0.4-0.1-0.7-0.2-1.1c-0.3-3.5,0.3-6.8,2.7-9.1c0.6-0.5,1.2-1,2-1.4
		s1.8-0.6,2.7-0.7C-532.7,290-532.5,290.3-532.6,291.5z M-489.8,284.3c0,3.2,0.1,6.3,0.2,9.5c0,0.9-0.2,1.5-0.9,1.9
		c-3.5,2.3-6.6,0.2-6.7-2c-0.4-3.9,0.4-6.6,2.2-9.1c1-1.3,2.8-1.8,4.3-1.4C-490,283.4-489.8,283.6-489.8,284.3z"/>
	<path class="st1" d="M-552.4,285.1c3.3,0.9,5.6-1.4,5.7-4.6c0-1-0.5-1.3-1.5-1.2c-1.2,0.3-2.4,0.7-3.5,1c-1.5,0.4-2.3,1.8-1.9,3.2
		C-553.5,284.1-553,284.9-552.4,285.1z"/>
</g>
<g>
	<g>
		<path class="st1" d="M-531.9,325.4c3.3,0.9,5.6-1.4,5.7-4.6c0-1-0.5-1.3-1.5-1.2c-1.2,0.3-2.4,0.7-3.5,1c-1.5,0.4-2.3,1.8-1.9,3.2
			C-533,324.5-532.4,325.3-531.9,325.4z"/>
		<path class="st1" d="M-486.2,316.6c3.3,0.9,5.6-1.4,5.7-4.6c0-1-0.5-1.3-1.5-1.2c-1.2,0.3-2.4,0.7-3.5,1c-1.5,0.4-2.3,1.8-1.9,3.2
			C-487.3,315.7-486.7,316.5-486.2,316.6z"/>
		<path class="st1" d="M-472.5,337.4c-0.5-2.5-2.1-4.2-3.9-5.9l0,0c-0.7-0.1-1.1,0.4-1.1,0.4c-0.8,1.7-1.8,3.2-3.5,4.1
			c-1.3,0.7-2.3,0.1-2.4-1.3c-0.1-0.9-0.2-1.9,0-2.9c0.4-2.4,0.9-4.8,1.4-7.1c0.7-3.2,0.1-3.8-2.1-5.3c-0.7-0.5-1.5-0.7-2.2-1
			c-1-0.4-1.2-0.3-1.3,0.8c-0.3,1.7-0.6,3.4-0.8,5.1c-0.3,2.5-0.6,5.1-0.9,7.6c0,0.3-0.1,0.7,0,1.1c0.5,1.7-0.1,3.1-1,4.4
			c-0.5,0.7-1.4,0.7-1.8-0.1c-0.4-0.9-0.8-2-0.8-3c0-3,1.2-5.8,2.1-8.5c0.7-2,1.7-4,0-5.9c-1-1.2-2.3-2.1-3.5-3.1
			c-0.2-0.2-0.7-0.1-0.9-0.1c-0.4,1.6-0.8,3-1.2,4.4c-0.1,0.3-0.5,0.7-0.9,0.8c-1.4,0.4-2.8,0.6-4.4,0.9c0.2-0.8,0.4-1.3,0.6-2
			c-0.2-0.1-0.5-0.2-0.8-0.3c-2-0.2-3.8,0.2-5.6,1.1c-1.1,0.5-1.4,1.2-0.9,2.2c0.7,1.3,1.6,2.6,2.4,3.9c0.2,0.3,0.3,0.6,0.5,0.9
			c-1,7.6-5.9,13.4-5.9,13.4c-3,2.4-6.1,0.5-7.8-1.1c-0.2-0.2-0.8-1-0.7-3.1l0,0c0.7-0.1,1.3-0.1,2-0.1c5.5-0.3,8.6-3.1,9.1-8.5
			c0.4-3.5-2.6-6.5-6.1-6.1c-2.9,0.3-5.3,1.7-7,3.9c-3.5,4.2-4.6,8.9-2.5,14.1c0.1,0.3,0.3,0.7,0.1,1c-0.5,1.3-1.3,2.3-2.5,3
			c-2,1-3.3,0.2-3-2c0.4-2.7,1.1-5.5,1.6-8.2c0.2-1.1,0.7-2.3,0.7-3.4c0-2.2-2.4-4.4-4.6-4.3c-0.3,0-0.8,0.4-0.8,0.6
			c-0.3,1.1-0.5,2.3-0.8,3.4c-0.3,1.1-0.9,2.1-1,3.2c-0.2,2.8-0.2,5.6-0.3,8.4c0,0.9-0.3,1.9-0.6,2.8c-0.3,0.9-1,1.5-1.8,1.3
			c-0.6-0.1-1.2-0.8-1.5-1.3c-1-1.9-0.4-3.9,0.2-5.7c0.6-2.1,1.6-4.1,2.3-6.2c1.3-3.8,1-5.2-1.8-7c-0.2-0.2-0.5-0.3-0.7-0.4
			c-0.9-0.5-1.2-0.5-1.6,0.5c-0.3,0.6-0.4,1.3-0.7,1.9c-0.8,1.4-2,2.7-2.6,4.2c-1.4,3.4-2.5,6.9-3.8,10.3c-0.4,1.1-0.9,2.1-1.3,3.2
			c-0.1,0-0.2-0.1-0.3-0.1c0-0.1,0-0.3,0-0.4c0.8-2.9,1.5-5.9,2.3-8.8c0.4-1.3,0.6-2.4,0.1-3.7c-0.8-2.1-2.7-2.7-4.4-3.6
			c-0.6-0.3-0.8,0.2-0.8,0.6c0.1,2-0.7,3.9-1.3,5.8c-1.3,4-1.6,8.1-1.6,12.2c0,1.3-0.5,2.5-1,3.7c-0.2,0.4-1.1,1-1.4,0.9
			c-0.5-0.2-0.9-0.9-1-1.5c-0.6-3.6,0.2-6.9,1.6-10.2c1.7-3.9,0.1-6.8-3.6-8.5c-0.4-0.2-1-0.4-1.2,0.4c-0.1,0.2-0.5,0.4-0.8,0.4
			c-1.4,0.1-2.8,0-4.1,0.2c-4,0.8-6.9,2.9-8.3,6.9c-0.3,0.7-0.3,1.5-0.5,2.3c-0.8,2.3-0.7,4.6-0.6,7c0,1-0.2,2.1-0.5,3.1
			c-0.2,0.7-0.9,1.5-1.7,1.3c-0.6-0.2-1.2-0.9-1.4-1.6c-0.5-2-0.2-4,0.4-5.9c0.7-2.4,1.5-4.8,2.2-7.3c0.5-1.9,0.1-3.6-1.6-4.7
			c-1-0.7-2.2-1.1-3.4-1.5c-1-0.3-1.2-0.1-1.1,1c0.1,0.9,0.3,1.9,0,2.7c-0.4,1.4-2.4,2.1-4.2,1.5c0.4-1.1,0.3-1.4-0.8-1.8
			c-0.4-0.1-0.8-0.3-1.1-0.2c-1.7,0.2-3.4,0.5-5.1,0.9c-1.1,1.3,0.1,2.8,0.1,2.8c1.6,2.8,1.2,3.8,1.2,3.8c0,1.2-1.9,6.1-1.9,6.1
			c-0.5,1.1-0.6,1-0.6,1c-0.7,0.1-0.8-0.9-0.8-0.9c-0.2-0.8-0.4-1.6-0.4-2.5c0-1.2,0.2-2.4,0.4-3.6c0.1-0.9-0.2-1.2-1.1-1
			c-1.8,0.5-3.6,0.9-5.4,1.5c-1.7,0.5-2.1,0.8-1.9,2.7c0.2,2.1-0.3,4-0.9,6c-1.4,4.6-4.2,8.1-9.2,8.9c-3.9,0.7-6.6-0.3-7.9-3.9
			c-0.5-1.3-0.7-2.7-0.6-4.1c0.4-4.4,2.2-8.3,4.1-12.2c1.2-2.5,0.7-2.4,3.6-1.7c0.3,0.1,0.6,0.1,0.8,0.2c4.2,1.1,8.2,1,12.2-0.8
			c4.2-1.9,6.6-4.9,6.5-9.7c-0.1-2.3-1.6-5.1-4.1-5.8c-3.4-0.9-6.7-0.4-10.1,0.2c-3.1,0.5-5.7,1.9-7.8,4.2c-1.2,1.3-2.3,2.8-3.6,4.1
			c-0.4,0.4-1,0.8-1.6,0.8c-2.7,0.4-5.5,0.6-8.3,1.1c-3.2,0.6-6.2,1.5-8.9,3.4c-1.1,0.8-2.4,1.6-3.1,2.7c-1.6,2.5-1.7,5.4-0.8,8.2
			c0.1,0.4,0.5,0.9,0.8,1.1c0.2,0.1,0.7-0.3,1-0.6c1.3-1.4,2.3-3,3.8-4.1c2.6-2.1,5.3-3.9,8.5-4.8c1.4-0.4,2.8-1.2,4.4-0.8
			c-0.1,0.4-0.2,0.7-0.3,1c-0.5,1.5-1.1,3-1.4,4.5c-1,4.5-2,8.9-1.9,13.6c0,3.6,1.2,6.5,4.2,8.6c2.6,1.7,5.6,2,8.6,1.7
			c5.2-0.6,9.2-3.6,12.4-7.6c0.7-0.9,1.4-1.9,2.1-2.9c0.1,0,0.2,0.1,0.4,0.1c-0.1,0.8,0.1,1.8-0.3,2.5c-0.7,1.3-1.5,2.6-2.4,3.8
			c-2.4,3.3-4.7,6.7-6.1,10.6c-0.7,1.8-1.1,3.8-0.5,5.8c0.5,1.6,1.2,3.2,2.9,3.9c2.1,0.9,4.3,0.7,6.3-0.4c2.9-1.7,4.8-4.3,6.4-7.1
			c0.3-0.6,0.6-1.2,0.7-1.9c0.9-4.6,1.1-9.1,0.3-13.7c-0.1-0.7,0.1-1.6,0.4-2.2c1.6-3.6,3.6-6.9,4.4-10.9c0.2-1,0.6-2,1-2.9
			c0.1-0.3,0.4-0.6,0.7-0.7c0.9-0.2,1.8-0.3,2.8-0.4c0,0.2,0,0.4,0,0.6c-0.1,2.3-0.3,4.6-0.3,6.8c0,4,3.5,7.1,7.2,6.3
			c1.2-0.3,2.3-0.7,3.1-1.7c0.5-0.6,1-0.8,1.8-0.2c1,0.6,2.1,1.1,3.2,1.2c2.3,0.3,4.3-0.7,6.2-1.7c0.8-0.4,1.3-0.4,2,0.2
			c1.2,1,2.6,1.4,4,0.7c1.3-0.6,2.5-1.5,3.8-2.2c0.3-0.2,0.9-0.3,1.2-0.1c1.8,1.3,3.8,0.9,4.7-1.2c0.9-2.2,1.6-4.5,2.4-6.8
			c0.5-1.4,0.9-2.8,1.3-4.2c0.1,0,0.3,0,0.4,0.1c0.2,1.2,0.1,2.5,0.5,3.6c0.9,2.7,4.2,5.1,7.3,3.7c0.9-0.4,1.7-0.9,2.5-1.4
			c0.7-0.5,1.1-0.6,1.9-0.1c1.2,0.7,2.5,1.3,4.1,1c2-0.3,3.6-1.2,4.9-2.7c0.9-1.1,1.7-1.2,2.9-0.4c0.5,0.4,1.1,0.6,1.8,0.8l0,0
			c0,0,6,2.2,10-2.2c2.7-2.9,4.7-6.2,5.6-10.1c0.4-1.7,0.8-3.4,1.2-5.1c0.3-1.2,1.3-1,2.1-0.9c0.4,0,0.9,0.7,1,1.2
			c0.2,0.8,0.1,1.6,0,2.4c-0.2,2.7,0,5.3,1.3,7.6c0.7,1.2,1.6,2.2,3,2.5c1.6,0.3,3.1-0.1,4.5-0.9c1-0.6,1.8-1.4,2.7-2.1
			c2.2,2.2,4.9,1.8,7.5,1.8c-0.1,0.4-0.2,0.8-0.3,1.1c-1.3,2.9-3,5.3-5.5,7.4c-2.7,2.2-5.6,3.9-8.7,5.3c-2.6,1.2-5.3,1.6-8.1,2
			c-2.5,0.4-5.1,0.9-7.6,1c-4.8,0.1-9.6-0.1-14.4-0.2c-4.9-0.1-9.8-0.5-14.6,0.2c-5,0.7-10.1,1.2-15.1,2c-3.6,0.6-7,1.5-10.6,2.2
			c-5.4,1.1-10.7,2.4-15.7,4.7c-2.7,1.2-5.2,2.8-7.3,5c-1,1.1-1.8,2.3-2.8,3.4c-1.6,1.8-3.3,3.7-4.9,5.5c-0.3,0.3-0.6,0.9-0.5,1
			c0.3,0.4,0.8,1,1.3,1.1c1.3,0.2,2.6,0.2,3.8,0c3-0.4,5.4-2,7.7-4c1-0.9,1.9-2.1,3-2.9c3.4-2.4,7.2-4.4,11.1-5.9c3-1.1,6-2.1,9-3.1
			c2.4-0.8,4.9-1.6,7.4-1.9c4.7-0.7,9.4-1.1,14-1.7c1.2-0.1,2.4-0.2,3.6-0.2c7.3,0.3,14.5,0.7,21.7,1.1c4.8,0.3,9.6,0.1,14.2-1.3
			c4.2-1.2,8.2-2.8,12-5c3.2-1.8,6.4-3.5,8.5-6.6c1.4-2,2.9-4.1,4-6.3C-472.5,342.9-472,340.2-472.5,337.4z M-516.4,329
			c0.4-0.2,0.9,0,1.4-0.1c0,0.4,0.1,0.9-0.1,1.3c-1,1.9-2.4,3.2-4.8,3.4C-519.3,331.5-518.4,329.8-516.4,329z M-610.1,331.8
			c1.9-0.4,3.8-0.5,5.7-0.5c0.7,0,1.7,0.2,1.7,1.1c0,0.7-0.6,1.3-1,1.9c-0.1,0.2-0.4,0.2-0.6,0.3c-3.3,1-6.6,1-10.2,0.1
			C-613.1,333.3-611.8,332.2-610.1,331.8z M-600.5,374.7c-0.3,1.1-0.7,2.1-1.2,3.1c-0.2,0.4-0.7,0.6-1.1,0.8
			c-0.1-0.4-0.5-0.8-0.4-1.2c0.5-2.1,1.2-4.2,1.8-6.3c0.1-0.3,0.5-0.6,0.8-0.5c0.2,0,0.5,0.4,0.7,0.6
			C-600.1,372.4-600.2,373.6-600.5,374.7z M-563.8,340.9c-0.2,2.5-0.4,5-0.7,7.5c0,0.4,0,0.9,0,1.3c-0.2,1.9-1.4,3-3.4,3.3
			c-1.5,0.2-2.5-0.4-3-1.8c-1.5-4-0.3-8.7,3.3-10.7c0.9-0.5,2.1-0.6,3.2-0.7C-564.3,339.8-563.8,340.5-563.8,340.9z"/>
	</g>
	<path class="st0" d="M-533.8,331.2c0,0-1.2,11.3-1.5,12.6s-1.6-0.6-1.6-0.6l1-8.8L-533.8,331.2z"/>
</g>
<rect x="-1021.7" y="253" class="st1" width="270" height="162"/>
<g>
	<g>
		<path class="st0" d="M-867.6,329.9c3.3,0.9,5.6-1.4,5.7-4.6c0-1-0.5-1.3-1.5-1.2c-1.2,0.3-2.4,0.7-3.5,1c-1.5,0.4-2.3,1.8-1.9,3.2
			C-868.7,328.9-868.1,329.7-867.6,329.9z"/>
		<path class="st0" d="M-821.9,321.1c3.3,0.9,5.6-1.4,5.7-4.6c0-1-0.5-1.3-1.5-1.2c-1.2,0.3-2.4,0.7-3.5,1c-1.5,0.4-2.3,1.8-1.9,3.2
			C-822.9,320.1-822.4,320.9-821.9,321.1z"/>
		<path class="st0" d="M-808.2,341.9c-0.5-2.5-2.1-4.2-3.9-5.9l0,0c-0.7-0.1-1.1,0.4-1.1,0.4c-0.8,1.7-1.8,3.2-3.5,4.1
			c-1.3,0.7-2.3,0.1-2.4-1.3c-0.1-0.9-0.2-1.9,0-2.9c0.4-2.4,0.9-4.8,1.4-7.1c0.7-3.2,0.1-3.8-2.1-5.3c-0.7-0.5-1.5-0.7-2.2-1
			c-1-0.4-1.2-0.3-1.3,0.8c-0.3,1.7-0.6,3.4-0.8,5.1c-0.3,2.5-0.6,5.1-0.9,7.6c0,0.3-0.1,0.7,0,1.1c0.5,1.7-0.1,3.1-1,4.4
			c-0.5,0.7-1.4,0.7-1.8-0.1c-0.4-0.9-0.8-2-0.8-3c0-3,1.2-5.8,2.1-8.5c0.7-2,1.7-4,0-5.9c-1-1.2-2.3-2.1-3.5-3.1
			c-0.2-0.2-0.7-0.1-0.9-0.1c-0.4,1.6-0.8,3-1.2,4.4c-0.1,0.3-0.5,0.7-0.9,0.8c-1.4,0.4-2.8,0.6-4.4,0.9c0.2-0.8,0.4-1.3,0.6-2
			c-0.2-0.1-0.5-0.2-0.8-0.3c-2-0.2-3.8,0.2-5.6,1.1c-1.1,0.5-1.4,1.2-0.9,2.2c0.7,1.3,1.6,2.6,2.4,3.9c0.2,0.3,0.3,0.6,0.5,0.9
			c-1,7.6-5.9,13.4-5.9,13.4c-3,2.4-6.1,0.5-7.8-1.1c-0.2-0.2-0.8-1-0.7-3.1l0,0c0.7-0.1,1.3-0.1,2-0.1c5.5-0.3,8.6-3.1,9.1-8.5
			c0.4-3.5-2.6-6.5-6.1-6.1c-2.9,0.3-5.3,1.7-7,3.9c-3.5,4.2-4.6,8.9-2.5,14.1c0.1,0.3,0.3,0.7,0.1,1c-0.5,1.3-1.3,2.3-2.5,3
			c-2,1-3.3,0.2-3-2c0.4-2.7,1.1-5.5,1.6-8.2c0.2-1.1,0.7-2.3,0.7-3.4c0-2.2-2.4-4.4-4.6-4.3c-0.3,0-0.8,0.4-0.8,0.6
			c-0.3,1.1-0.5,2.3-0.8,3.4s-0.9,2.1-1,3.2c-0.2,2.8-0.2,5.6-0.3,8.4c0,0.9-0.3,1.9-0.6,2.8c-0.3,0.9-1,1.5-1.8,1.3
			c-0.6-0.1-1.2-0.8-1.5-1.3c-1-1.9-0.4-3.9,0.2-5.7c0.6-2.1,1.6-4.1,2.3-6.2c1.3-3.8,1-5.2-1.8-7c-0.2-0.2-0.5-0.3-0.7-0.4
			c-0.9-0.5-1.2-0.5-1.6,0.5c-0.3,0.6-0.4,1.3-0.7,1.9c-0.8,1.4-2,2.7-2.6,4.2c-1.4,3.4-2.5,6.9-3.8,10.3c-0.4,1.1-0.9,2.1-1.3,3.2
			c-0.1,0-0.2-0.1-0.3-0.1c0-0.1,0-0.3,0-0.4c0.8-2.9,1.5-5.9,2.3-8.8c0.4-1.3,0.6-2.4,0.1-3.7c-0.8-2.1-2.7-2.7-4.4-3.6
			c-0.6-0.3-0.8,0.2-0.8,0.6c0.1,2-0.7,3.9-1.3,5.8c-1.3,4-1.6,8.1-1.6,12.2c0,1.3-0.5,2.5-1,3.7c-0.2,0.4-1.1,1-1.4,0.9
			c-0.5-0.2-0.9-0.9-1-1.5c-0.6-3.6,0.2-6.9,1.6-10.2c1.7-3.9,0.1-6.8-3.6-8.5c-0.4-0.2-1-0.4-1.2,0.4c-0.1,0.2-0.5,0.4-0.8,0.4
			c-1.4,0.1-2.8,0-4.1,0.2c-4,0.8-6.9,2.9-8.3,6.9c-0.3,0.7-0.3,1.5-0.5,2.3c-0.8,2.3-0.7,4.6-0.6,7c0,1-0.2,2.1-0.5,3.1
			c-0.2,0.7-0.9,1.5-1.7,1.3c-0.6-0.2-1.2-0.9-1.4-1.6c-0.5-2-0.2-4,0.4-5.9c0.7-2.4,1.5-4.8,2.2-7.3c0.5-1.9,0.1-3.6-1.6-4.7
			c-1-0.7-2.2-1.1-3.4-1.5c-1-0.3-1.2-0.1-1.1,1c0.1,0.9,0.3,1.9,0,2.7c-0.4,1.4-2.4,2.1-4.2,1.5c0.4-1.1,0.3-1.4-0.8-1.8
			c-0.4-0.1-0.8-0.3-1.1-0.2c-1.7,0.2-3.4,0.5-5.1,0.9c-1.1,1.3,0.1,2.8,0.1,2.8c1.6,2.8,1.2,3.8,1.2,3.8c0,1.2-1.9,6.1-1.9,6.1
			c-0.5,1.1-0.6,1-0.6,1c-0.7,0.1-0.8-0.9-0.8-0.9c-0.2-0.8-0.4-1.6-0.4-2.5c0-1.2,0.2-2.4,0.4-3.6c0.1-0.9-0.2-1.2-1.1-1
			c-1.8,0.5-3.6,0.9-5.4,1.5c-1.7,0.5-2.1,0.8-1.9,2.7c0.2,2.1-0.3,4-0.9,6c-1.4,4.6-4.2,8.1-9.2,8.9c-3.9,0.7-6.6-0.3-7.9-3.9
			c-0.5-1.3-0.7-2.7-0.6-4.1c0.4-4.4,2.2-8.3,4.1-12.2c1.2-2.5,0.7-2.4,3.6-1.7c0.3,0.1,0.6,0.1,0.8,0.2c4.2,1.1,8.2,1,12.2-0.8
			c4.2-1.9,6.6-4.9,6.5-9.7c-0.1-2.3-1.6-5.1-4.1-5.8c-3.4-0.9-6.7-0.4-10.1,0.2c-3.1,0.5-5.7,1.9-7.8,4.2c-1.2,1.3-2.3,2.8-3.6,4.1
			c-0.4,0.4-1,0.8-1.6,0.8c-2.7,0.4-5.5,0.6-8.3,1.1c-3.2,0.6-6.2,1.5-8.9,3.4c-1.1,0.8-2.4,1.6-3.1,2.7c-1.6,2.5-1.7,5.4-0.8,8.2
			c0.1,0.4,0.5,0.9,0.8,1.1c0.2,0.1,0.7-0.3,1-0.6c1.3-1.4,2.3-3,3.8-4.1c2.6-2.1,5.3-3.9,8.5-4.8c1.4-0.4,2.8-1.2,4.4-0.8
			c-0.1,0.4-0.2,0.7-0.3,1c-0.5,1.5-1.1,3-1.4,4.5c-1,4.5-2,8.9-1.9,13.6c0,3.6,1.2,6.5,4.2,8.6c2.6,1.7,5.6,2,8.6,1.7
			c5.2-0.6,9.2-3.6,12.4-7.6c0.7-0.9,1.4-1.9,2.1-2.9c0.1,0,0.2,0.1,0.4,0.1c-0.1,0.8,0.1,1.8-0.3,2.5c-0.7,1.3-1.5,2.6-2.4,3.8
			c-2.4,3.3-4.7,6.7-6.1,10.6c-0.7,1.8-1.1,3.8-0.5,5.8c0.5,1.6,1.2,3.2,2.9,3.9c2.1,0.9,4.3,0.7,6.3-0.4c2.9-1.7,4.8-4.3,6.4-7.1
			c0.3-0.6,0.6-1.2,0.7-1.9c0.9-4.6,1.1-9.1,0.3-13.7c-0.1-0.7,0.1-1.6,0.4-2.2c1.6-3.6,3.6-6.9,4.4-10.9c0.2-1,0.6-2,1-2.9
			c0.1-0.3,0.4-0.6,0.7-0.7c0.9-0.2,1.8-0.3,2.8-0.4c0,0.2,0,0.4,0,0.6c-0.1,2.3-0.3,4.6-0.3,6.8c0,4,3.5,7.1,7.2,6.3
			c1.2-0.3,2.3-0.7,3.1-1.7c0.5-0.6,1-0.8,1.8-0.2c1,0.6,2.1,1.1,3.2,1.2c2.3,0.3,4.3-0.7,6.2-1.7c0.8-0.4,1.3-0.4,2,0.2
			c1.2,1,2.6,1.4,4,0.7c1.3-0.6,2.5-1.5,3.8-2.2c0.3-0.2,0.9-0.3,1.2-0.1c1.8,1.3,3.8,0.9,4.7-1.2c0.9-2.2,1.6-4.5,2.4-6.8
			c0.5-1.4,0.9-2.8,1.3-4.2c0.1,0,0.3,0,0.4,0.1c0.2,1.2,0.1,2.5,0.5,3.6c0.9,2.7,4.2,5.1,7.3,3.7c0.9-0.4,1.7-0.9,2.5-1.4
			c0.7-0.5,1.1-0.6,1.9-0.1c1.2,0.7,2.5,1.3,4.1,1c2-0.3,3.6-1.2,4.9-2.7c0.9-1.1,1.7-1.2,2.9-0.4c0.5,0.4,1.1,0.6,1.8,0.8l0,0
			c0,0,6,2.2,10-2.2c2.7-2.9,4.7-6.2,5.6-10.1c0.4-1.7,0.8-3.4,1.2-5.1c0.3-1.2,1.3-1,2.1-0.9c0.4,0,0.9,0.7,1,1.2
			c0.2,0.8,0.1,1.6,0,2.4c-0.2,2.7,0,5.3,1.3,7.6c0.7,1.2,1.6,2.2,3,2.5c1.6,0.3,3.1-0.1,4.5-0.9c1-0.6,1.8-1.4,2.7-2.1
			c2.2,2.2,4.9,1.8,7.5,1.8c-0.1,0.4-0.2,0.8-0.3,1.1c-1.3,2.9-3,5.3-5.5,7.4c-2.7,2.2-5.6,3.9-8.7,5.3c-2.6,1.2-5.3,1.6-8.1,2
			c-2.5,0.4-5.1,0.9-7.6,1c-4.8,0.1-9.6-0.1-14.4-0.2c-4.9-0.1-9.8-0.5-14.6,0.2c-5,0.7-10.1,1.2-15.1,2c-3.6,0.6-7,1.5-10.6,2.2
			c-5.4,1.1-10.7,2.4-15.7,4.7c-2.7,1.2-5.2,2.8-7.3,5c-1,1.1-1.8,2.3-2.8,3.4c-1.6,1.8-3.3,3.7-4.9,5.5c-0.3,0.3-0.6,0.9-0.5,1
			c0.3,0.4,0.8,1,1.3,1.1c1.3,0.2,2.6,0.2,3.8,0c3-0.4,5.4-2,7.7-4c1-0.9,1.9-2.1,3-2.9c3.4-2.4,7.2-4.4,11.1-5.9c3-1.1,6-2.1,9-3.1
			c2.4-0.8,4.9-1.6,7.4-1.9c4.7-0.7,9.4-1.1,14-1.7c1.2-0.1,2.4-0.2,3.6-0.2c7.3,0.3,14.5,0.7,21.7,1.1c4.8,0.3,9.6,0.1,14.2-1.3
			c4.2-1.2,8.2-2.8,12-5c3.2-1.8,6.4-3.5,8.5-6.6c1.4-2,2.9-4.1,4-6.3C-808.2,347.3-807.7,344.6-808.2,341.9z M-852.1,333.5
			c0.4-0.2,0.9,0,1.4-0.1c0,0.4,0.1,0.9-0.1,1.3c-1,1.9-2.4,3.2-4.8,3.4C-855,336-854.1,334.2-852.1,333.5z M-945.8,336.2
			c1.9-0.4,3.8-0.5,5.7-0.5c0.7,0,1.7,0.2,1.7,1.1c0,0.7-0.6,1.3-1,1.9c-0.1,0.2-0.4,0.2-0.6,0.3c-3.3,1-6.6,1-10.2,0.1
			C-948.8,337.7-947.5,336.6-945.8,336.2z M-936.2,379.1c-0.3,1.1-0.7,2.1-1.2,3.1c-0.2,0.4-0.7,0.6-1.1,0.8
			c-0.1-0.4-0.5-0.8-0.4-1.2c0.5-2.1,1.2-4.2,1.8-6.3c0.1-0.3,0.5-0.6,0.8-0.5c0.2,0,0.5,0.4,0.7,0.6
			C-935.8,376.9-935.9,378-936.2,379.1z M-899.5,345.3c-0.2,2.5-0.4,5-0.7,7.5c0,0.4,0,0.9,0,1.3c-0.2,1.9-1.4,3-3.4,3.3
			c-1.5,0.2-2.5-0.4-3-1.8c-1.5-4-0.3-8.7,3.3-10.7c0.9-0.5,2.1-0.6,3.2-0.7C-900,344.3-899.5,345-899.5,345.3z"/>
	</g>
	<path class="st1" d="M-869.5,335.6c0,0-1.2,11.3-1.5,12.6c-0.3,1.3-1.6-0.6-1.6-0.6l1-8.8L-869.5,335.6z"/>
</g>
<rect x="-682.6" y="465" class="st1" width="270" height="162"/>
<rect x="-1334.7" y="247" class="st2" width="270" height="162"/>
<g>
	<path class="st3" d="M-1127.2,298c1.9-0.5,2.8-1.2,2.9-1.4l0,0c2.4-3.4,0.2-6.9,0-7.2c-0.4-0.4-0.8-0.8-1.2-1.2l0,0
		c-0.7-0.1-1.1,0.4-1.1,0.4c-0.6,1.2-1.2,2.3-2.2,3.1c-0.7,0.4-1.6,0.3-2.3,0c-1-0.4-1.2-1.4-1.2-2.3c-0.1-1.9-0.1-3.7,0.6-5.5
		c0.5-1.3,1-2.7,1.4-4c0.4-1.4,0.5-2.8-0.6-3.9c-0.6-0.6-1.4-0.9-2-1.3c-1.3-0.8-2.8-0.5-3.5,0.8c-3.2-0.6-6.3-0.1-9.2,1.4
		c-2.3,1.2-4.2,2.8-5.2,5.3c-1.1,2.8-1.1,5.6-0.6,8.5c0.3,1.5-0.3,3-1.6,3.5c-0.8,0.3-1.5,0.3-2-0.7c-0.7-1.5-0.4-3-0.1-4.4
		c0.7-2.6,1.5-5.1,2.3-7.6c0.5-1.7,0.3-3.3-1.2-4.4c-0.8-0.6-1.6-1-2.4-1.6c-0.8-0.5-1.1-0.1-1.4,0.6c-0.8,2-1.7,3.9-2.5,5.8
		c-1.4,3.2-3.3,6.1-4.2,9.5c-0.4,1.7-1.3,3.2-2,4.8c-0.1,0-0.1,0-0.2,0c0-0.2-0.1-0.4,0-0.6c0.5-2.3,1-4.6,1.5-6.9
		c0.3-1.2,0.8-2.3,1-3.4c0.6-3-0.8-5.4-3.7-6.2c-0.6-0.2-1-0.2-1.2,0.5c-1.4,5.1-2.8,10.3-3,15.6c-0.1,1.8,0,3.8-1.4,5.3
		c-0.3,0.3-0.9,0.8-1.1,0.7c-0.4-0.2-0.8-0.7-1-1.2c-0.2-0.4-0.1-0.9-0.1-1.3c0.1-3.9,1.3-7.6,2.3-11.4c0.3-1.2,0.5-2.5-0.4-3.4
		c-1-1.1-2.3-1.9-3.6-2.8c-0.9-0.6-1.4-0.1-1.9,0.7c-0.2,0.3-0.5,0.6-0.9,0.7c-1.5,0.3-3.1,0.3-4.6,0.6c-3.6,0.8-6.4,2.8-8.1,6.2
		c-1.5,3.2-1.5,6.5-1.4,9.9c0.1,2.1-1,4.1-2.9,5c-1,0.5-1.6,0.3-1.8-0.8c-0.2-0.9-0.3-1.9-0.3-2.9c0.2-2.9,1-5.6,2-8.4
		c0.3-1,0.7-2,0.6-3c-0.2-2.5-0.9-3.4-4.4-4.3c-0.8-0.2-1.2,0-1.4,0.8c-0.6,3.5-1.3,7.1-1.9,10.6c-0.3,2.3-0.4,4.7-0.6,7
		c-0.1,0.9-1.1,1.8-1.9,1.8s-1.6-0.8-1.5-1.8c0-1.3,0-2.7,0.4-4c0.6-2.2,1.6-4.4,2.3-6.6c0.4-1.2,0.6-2.5,0.7-3.7
		c0.1-2-1.6-4-3.5-4.4c-1.2-0.2-1.5,0-1.4,1.2c0.1,1.8-0.7,3-2.3,3.5c-1,0.3-2.1,0.3-3.2,0.5c-0.9,0.1-1.3-0.2-0.9-1.2
		c0.4-0.8,0-1.3-0.8-1.2c-1.4,0.1-2.8,0.2-4.2,0.5c-1.3,0.2-1.9,1.1-1.6,2.4c0.2,1,0.6,2,0.9,3c0.3,0.8,0.8,1.7,0.8,2.5
		c0,1.9-0.2,3.7-0.5,5.6c-0.4,2.4-1.6,4.4-3.2,6.2c-0.8,0.8-1.4,0.7-1.7-0.4c-0.3-1-0.6-2.1-0.5-3.1c0.3-3.4,0.7-6.8,1.1-10.3
		c0.4-3.2,1.5-6.1,3-8.8c1.2-2.2,1.6-4,0-5.7c-0.7-0.7-1.7-1.2-2.6-1.7c-1.8-1-2.6-0.6-2.9,1.4c0,0.1,0,0.3-0.1,0.4
		c-0.7,3.4-1.5,6.7-2.2,10.1c-0.2,1.2-0.9,1.7-2.1,1.7c-3.2,0-5.6,1.6-7.5,3.9c-3.4,4.2-4.8,9-3.1,14.4c0.2,0.6-0.1,1.5-0.5,2
		c-1.3,1.7-4.4,1.6-5.6-0.3c-1.8-2.7-2.4-5.7-2.3-8.9c0-0.9,0.3-1.4,1.3-1.7c2.2-0.8,4.2-3.9,4.2-6.1c0-1-0.4-1.4-1.4-1.2
		c-0.6,0.1-1.1,0.2-1.7,0.3c-0.8,0.1-1.1-0.3-0.9-1.1c0.2-1,0.4-2.1,0.7-3.1c0.6-2.3,1.3-4.6,1.9-6.9s-0.6-4.6-2.6-4.9
		c-2.3-0.3-4.6,0.1-6.5,1.4c-3.7,2.6-5.9,6.2-7.2,10.4c-1,3.3-1.6,6.8-2.5,10.1c-1,3.6-2.1,7.1-3.4,10.5c-0.6,1.5-1.6,3.1-2.9,4.1
		c-2.8,2.3-6,2.8-9.7,2.2c-3.5-0.6-6.3-2.1-9-4.3c-1.3-1.1-2.8-2.1-4.2-2.9c-1.3-0.8-2.7-0.1-2.7,1.5c0,1.4,0,2.8,0.3,4.1
		c0.4,1.4,0.8,3.1,1.8,4.1c1.3,1.3,3,2.2,4.6,3.1c3.7,2,7.7,2.7,11.8,2.6c1.4,0,2.9,0,4.2-0.5c3.3-1.2,6.1-3.1,8.2-6.2
		c3-4.5,5.7-9.1,7-14.5c0.5-2.2,0.6-2.2,3-2.1c0.1,0,0.2,0,0.3,0c0.7,0,0.9,0.3,0.9,1c0,1.4,0.1,2.8,0.2,4.3c0.2,3.4,1,6.6,4.2,8.6
		c2.3,1.4,4.6,2.4,7.1,0.9c1-0.5,1.9-1.2,2.7-2c0.6-0.6,1.1-0.6,1.9-0.4c1.8,0.4,3.6,0.8,5.4,0.9c1.2,0,2.6-0.4,3.4-1.1
		c1.3-1.1,2.5-1.3,4.1-1.1c2,0.2,3.8-0.4,5.1-2.2c2.4-3.3,3.6-7.1,4.5-10.9c1-4.1,0.4-3.3,4.3-3.7c0.1,0,0.1,0,0.3,0.1
		c0,0.3,0,0.7-0.1,1c-0.6,2.4-0.4,4.9,0.3,7.2c0.5,1.7,1,3.5,2.8,4.2c2.1,0.9,4.4,1,6.4-0.2c1.1-0.6,1.9-0.5,2.9,0
		c2.2,1.1,4.3,0.7,6.2-0.7c0.8-0.6,1.6-1.1,2.3-1.8c0.6-0.5,1-0.6,1.7-0.2c2.9,1.5,5.9,1.8,8.8,0.1c1.3-0.8,2.5-0.8,3.9-0.2
		c2.3,1,4.4,0.7,6.3-1c0.7-0.6,1.3-0.7,2.2-0.2c1.4,0.8,2.9,0.6,3.8-0.3c1.3-1.3,2-2.9,2.5-4.7c0.6-2.3,1.4-4.5,2.1-6.8
		c0-0.1,0.2-0.2,0.4-0.4c0.5,1.5,0.8,2.8,1.3,4.1c1.4,3.4,4.8,4.3,7.6,2.1c0.8-0.7,1.6-1.4,2.3-2.1c1.1,0.8,2,1.7,3.1,2.1
		c3,1.1,5.9,1,8.7-0.7c0.4-0.3,1.1-0.5,1.5-0.3c0.1,0.1,0.2,0.1,0.3,0.2C-1136,297.2-1131,298.7-1127.2,298z M-1255.2,292.4
		c-0.1,0.5-0.2,1.1-0.4,1.6c-0.2,0.4-0.5,0.8-0.9,0.9c-1.8,0.4-2.1,0.1-1.5-1.7c0.4-1.3,0.8-2.7,1.3-4c0.1-0.4,0.3-0.8,0.6-1
		c0.3-0.3,0.8-0.5,1.1-0.5c0.2,0,0.4,0.6,0.7,0.9C-1254.6,289.8-1254.9,291.1-1255.2,292.4z M-1232.8,305c0,1.1,0,2.2-0.1,3.2
		c-0.1,1.6-0.2,1.7-1.8,2.1c-2,0.5-4.1-0.2-4.6-1.8c-0.5-1.6-0.5-3.2-0.2-4.9c0.5-2.6,2.3-4.2,4.2-5.7c0.7-0.5,1.6-0.6,2.6-1
		C-1232.7,299.8-1232.8,302.4-1232.8,305z M-1181.3,289.9c-0.1,1.1-0.4,2.3-0.4,3.4c0,2.1,0,4.3,0.1,6.4c0.1,1-0.1,1.8-1,2.2
		c-1.4,0.6-2.8,1.2-4.2,1.3c-1.7,0.1-2.5-0.8-2.9-2.5c-0.1-0.4-0.1-0.7-0.2-1.1c-0.3-3.5,0.3-6.8,2.7-9.1c0.6-0.5,1.2-1,2-1.4
		c0.8-0.4,1.8-0.6,2.7-0.7C-1181.4,288.4-1181.2,288.7-1181.3,289.9z M-1138.5,282.7c0,3.2,0.1,6.3,0.2,9.5c0,0.9-0.2,1.5-0.9,1.9
		c-3.5,2.3-6.6,0.2-6.7-2c-0.4-3.9,0.4-6.6,2.2-9.1c1-1.3,2.8-1.8,4.3-1.4C-1138.7,281.8-1138.5,282-1138.5,282.7z"/>
	<path class="st3" d="M-1201.1,283.5c3.3,0.9,5.6-1.4,5.7-4.6c0-1-0.5-1.3-1.5-1.2c-1.2,0.3-2.4,0.7-3.5,1c-1.5,0.4-2.3,1.8-1.9,3.2
		C-1202.2,282.5-1201.7,283.3-1201.1,283.5z"/>
</g>
<g>
	<g>
		<path class="st3" d="M-1180.6,323.8c3.3,0.9,5.6-1.4,5.7-4.6c0-1-0.5-1.3-1.5-1.2c-1.2,0.3-2.4,0.7-3.5,1
			c-1.5,0.4-2.3,1.8-1.9,3.2C-1181.7,322.9-1181.1,323.7-1180.6,323.8z"/>
		<path class="st3" d="M-1134.9,315c3.3,0.9,5.6-1.4,5.7-4.6c0-1-0.5-1.3-1.5-1.2c-1.2,0.3-2.4,0.7-3.5,1c-1.5,0.4-2.3,1.8-1.9,3.2
			C-1135.9,314.1-1135.4,314.9-1134.9,315z"/>
		<path class="st3" d="M-1121.2,335.8c-0.5-2.5-2.1-4.2-3.9-5.9l0,0c-0.7-0.1-1.1,0.4-1.1,0.4c-0.8,1.7-1.8,3.2-3.5,4.1
			c-1.3,0.7-2.3,0.1-2.4-1.3c-0.1-0.9-0.2-1.9,0-2.9c0.4-2.4,0.9-4.8,1.4-7.1c0.7-3.2,0.1-3.8-2.1-5.3c-0.7-0.5-1.5-0.7-2.2-1
			c-1-0.4-1.2-0.3-1.3,0.8c-0.3,1.7-0.6,3.4-0.8,5.1c-0.3,2.5-0.6,5.1-0.9,7.6c0,0.3-0.1,0.7,0,1.1c0.5,1.7-0.1,3.1-1,4.4
			c-0.5,0.7-1.4,0.7-1.8-0.1c-0.4-0.9-0.8-2-0.8-3c0-3,1.2-5.8,2.1-8.5c0.7-2,1.7-4,0-5.9c-1-1.2-2.3-2.1-3.5-3.1
			c-0.2-0.2-0.7-0.1-0.9-0.1c-0.4,1.6-0.8,3-1.2,4.4c-0.1,0.3-0.5,0.7-0.9,0.8c-1.4,0.4-2.8,0.6-4.4,0.9c0.2-0.8,0.4-1.3,0.6-2
			c-0.2-0.1-0.5-0.2-0.8-0.3c-2-0.2-3.8,0.2-5.6,1.1c-1.1,0.5-1.4,1.2-0.9,2.2c0.7,1.3,1.6,2.6,2.4,3.9c0.2,0.3,0.3,0.6,0.5,0.9
			c-1,7.6-5.9,13.4-5.9,13.4c-3,2.4-6.1,0.5-7.8-1.1c-0.2-0.2-0.8-1-0.7-3.1l0,0c0.7-0.1,1.3-0.1,2-0.1c5.5-0.3,8.6-3.1,9.1-8.5
			c0.4-3.5-2.6-6.5-6.1-6.1c-2.9,0.3-5.3,1.7-7,3.9c-3.5,4.2-4.6,8.9-2.5,14.1c0.1,0.3,0.3,0.7,0.1,1c-0.5,1.3-1.3,2.3-2.5,3
			c-2,1-3.3,0.2-3-2c0.4-2.7,1.1-5.5,1.6-8.2c0.2-1.1,0.7-2.3,0.7-3.4c0-2.2-2.4-4.4-4.6-4.3c-0.3,0-0.8,0.4-0.8,0.6
			c-0.3,1.1-0.5,2.3-0.8,3.4s-0.9,2.1-1,3.2c-0.2,2.8-0.2,5.6-0.3,8.4c0,0.9-0.3,1.9-0.6,2.8c-0.3,0.9-1,1.5-1.8,1.3
			c-0.6-0.1-1.2-0.8-1.5-1.3c-1-1.9-0.4-3.9,0.2-5.7c0.6-2.1,1.6-4.1,2.3-6.2c1.3-3.8,1-5.2-1.8-7c-0.2-0.2-0.5-0.3-0.7-0.4
			c-0.9-0.5-1.2-0.5-1.6,0.5c-0.3,0.6-0.4,1.3-0.7,1.9c-0.8,1.4-2,2.7-2.6,4.2c-1.4,3.4-2.5,6.9-3.8,10.3c-0.4,1.1-0.9,2.1-1.3,3.2
			c-0.1,0-0.2-0.1-0.3-0.1c0-0.1,0-0.3,0-0.4c0.8-2.9,1.5-5.9,2.3-8.8c0.4-1.3,0.6-2.4,0.1-3.7c-0.8-2.1-2.7-2.7-4.4-3.6
			c-0.6-0.3-0.8,0.2-0.8,0.6c0.1,2-0.7,3.9-1.3,5.8c-1.3,4-1.6,8.1-1.6,12.2c0,1.3-0.5,2.5-1,3.7c-0.2,0.4-1.1,1-1.4,0.9
			c-0.5-0.2-0.9-0.9-1-1.5c-0.6-3.6,0.2-6.9,1.6-10.2c1.7-3.9,0.1-6.8-3.6-8.5c-0.4-0.2-1-0.4-1.2,0.4c-0.1,0.2-0.5,0.4-0.8,0.4
			c-1.4,0.1-2.8,0-4.1,0.2c-4,0.8-6.9,2.9-8.3,6.9c-0.3,0.7-0.3,1.5-0.5,2.3c-0.8,2.3-0.7,4.6-0.6,7c0,1-0.2,2.1-0.5,3.1
			c-0.2,0.7-0.9,1.5-1.7,1.3c-0.6-0.2-1.2-0.9-1.4-1.6c-0.5-2-0.2-4,0.4-5.9c0.7-2.4,1.5-4.8,2.2-7.3c0.5-1.9,0.1-3.6-1.6-4.7
			c-1-0.7-2.2-1.1-3.4-1.5c-1-0.3-1.2-0.1-1.1,1c0.1,0.9,0.3,1.9,0,2.7c-0.4,1.4-2.4,2.1-4.2,1.5c0.4-1.1,0.3-1.4-0.8-1.8
			c-0.4-0.1-0.8-0.3-1.1-0.2c-1.7,0.2-3.4,0.5-5.1,0.9c-1.1,1.3,0.1,2.8,0.1,2.8c1.6,2.8,1.2,3.8,1.2,3.8c0,1.2-1.9,6.1-1.9,6.1
			c-0.5,1.1-0.6,1-0.6,1c-0.7,0.1-0.8-0.9-0.8-0.9c-0.2-0.8-0.4-1.6-0.4-2.5c0-1.2,0.2-2.4,0.4-3.6c0.1-0.9-0.2-1.2-1.1-1
			c-1.8,0.5-3.6,0.9-5.4,1.5c-1.7,0.5-2.1,0.8-1.9,2.7c0.2,2.1-0.3,4-0.9,6c-1.4,4.6-4.2,8.1-9.2,8.9c-3.9,0.7-6.6-0.3-7.9-3.9
			c-0.5-1.3-0.7-2.7-0.6-4.1c0.4-4.4,2.2-8.3,4.1-12.2c1.2-2.5,0.7-2.4,3.6-1.7c0.3,0.1,0.6,0.1,0.8,0.2c4.2,1.1,8.2,1,12.2-0.8
			c4.2-1.9,6.6-4.9,6.5-9.7c-0.1-2.3-1.6-5.1-4.1-5.8c-3.4-0.9-6.7-0.4-10.1,0.2c-3.1,0.5-5.7,1.9-7.8,4.2c-1.2,1.3-2.3,2.8-3.6,4.1
			c-0.4,0.4-1,0.8-1.6,0.8c-2.7,0.4-5.5,0.6-8.3,1.1c-3.2,0.6-6.2,1.5-8.9,3.4c-1.1,0.8-2.4,1.6-3.1,2.7c-1.6,2.5-1.7,5.4-0.8,8.2
			c0.1,0.4,0.5,0.9,0.8,1.1c0.2,0.1,0.7-0.3,1-0.6c1.3-1.4,2.3-3,3.8-4.1c2.6-2.1,5.3-3.9,8.5-4.8c1.4-0.4,2.8-1.2,4.4-0.8
			c-0.1,0.4-0.2,0.7-0.3,1c-0.5,1.5-1.1,3-1.4,4.5c-1,4.5-2,8.9-1.9,13.6c0,3.6,1.2,6.5,4.2,8.6c2.6,1.7,5.6,2,8.6,1.7
			c5.2-0.6,9.2-3.6,12.4-7.6c0.7-0.9,1.4-1.9,2.1-2.9c0.1,0,0.2,0.1,0.4,0.1c-0.1,0.8,0.1,1.8-0.3,2.5c-0.7,1.3-1.5,2.6-2.4,3.8
			c-2.4,3.3-4.7,6.7-6.1,10.6c-0.7,1.8-1.1,3.8-0.5,5.8c0.5,1.6,1.2,3.2,2.9,3.9c2.1,0.9,4.3,0.7,6.3-0.4c2.9-1.7,4.8-4.3,6.4-7.1
			c0.3-0.6,0.6-1.2,0.7-1.9c0.9-4.6,1.1-9.1,0.3-13.7c-0.1-0.7,0.1-1.6,0.4-2.2c1.6-3.6,3.6-6.9,4.4-10.9c0.2-1,0.6-2,1-2.9
			c0.1-0.3,0.4-0.6,0.7-0.7c0.9-0.2,1.8-0.3,2.8-0.4c0,0.2,0,0.4,0,0.6c-0.1,2.3-0.3,4.6-0.3,6.8c0,4,3.5,7.1,7.2,6.3
			c1.2-0.3,2.3-0.7,3.1-1.7c0.5-0.6,1-0.8,1.8-0.2c1,0.6,2.1,1.1,3.2,1.2c2.3,0.3,4.3-0.7,6.2-1.7c0.8-0.4,1.3-0.4,2,0.2
			c1.2,1,2.6,1.4,4,0.7c1.3-0.6,2.5-1.5,3.8-2.2c0.3-0.2,0.9-0.3,1.2-0.1c1.8,1.3,3.8,0.9,4.7-1.2c0.9-2.2,1.6-4.5,2.4-6.8
			c0.5-1.4,0.9-2.8,1.3-4.2c0.1,0,0.3,0,0.4,0.1c0.2,1.2,0.1,2.5,0.5,3.6c0.9,2.7,4.2,5.1,7.3,3.7c0.9-0.4,1.7-0.9,2.5-1.4
			c0.7-0.5,1.1-0.6,1.9-0.1c1.2,0.7,2.5,1.3,4.1,1c2-0.3,3.6-1.2,4.9-2.7c0.9-1.1,1.7-1.2,2.9-0.4c0.5,0.4,1.1,0.6,1.8,0.8l0,0
			c0,0,6,2.2,10-2.2c2.7-2.9,4.7-6.2,5.6-10.1c0.4-1.7,0.8-3.4,1.2-5.1c0.3-1.2,1.3-1,2.1-0.9c0.4,0,0.9,0.7,1,1.2
			c0.2,0.8,0.1,1.6,0,2.4c-0.2,2.7,0,5.3,1.3,7.6c0.7,1.2,1.6,2.2,3,2.5c1.6,0.3,3.1-0.1,4.5-0.9c1-0.6,1.8-1.4,2.7-2.1
			c2.2,2.2,4.9,1.8,7.5,1.8c-0.1,0.4-0.2,0.8-0.3,1.1c-1.3,2.9-3,5.3-5.5,7.4c-2.7,2.2-5.6,3.9-8.7,5.3c-2.6,1.2-5.3,1.6-8.1,2
			c-2.5,0.4-5.1,0.9-7.6,1c-4.8,0.1-9.6-0.1-14.4-0.2c-4.9-0.1-9.8-0.5-14.6,0.2c-5,0.7-10.1,1.2-15.1,2c-3.6,0.6-7,1.5-10.6,2.2
			c-5.4,1.1-10.7,2.4-15.7,4.7c-2.7,1.2-5.2,2.8-7.3,5c-1,1.1-1.8,2.3-2.8,3.4c-1.6,1.8-3.3,3.7-4.9,5.5c-0.3,0.3-0.6,0.9-0.5,1
			c0.3,0.4,0.8,1,1.3,1.1c1.3,0.2,2.6,0.2,3.8,0c3-0.4,5.4-2,7.7-4c1-0.9,1.9-2.1,3-2.9c3.4-2.4,7.2-4.4,11.1-5.9c3-1.1,6-2.1,9-3.1
			c2.4-0.8,4.9-1.6,7.4-1.9c4.7-0.7,9.4-1.1,14-1.7c1.2-0.1,2.4-0.2,3.6-0.2c7.3,0.3,14.5,0.7,21.7,1.1c4.8,0.3,9.6,0.1,14.2-1.3
			c4.2-1.2,8.2-2.8,12-5c3.2-1.8,6.4-3.5,8.5-6.6c1.4-2,2.9-4.1,4-6.3C-1121.2,341.3-1120.7,338.6-1121.2,335.8z M-1165.1,327.4
			c0.4-0.2,0.9,0,1.4-0.1c0,0.4,0.1,0.9-0.1,1.3c-1,1.9-2.4,3.2-4.8,3.4C-1168,330-1167.1,328.2-1165.1,327.4z M-1258.8,330.2
			c1.9-0.4,3.8-0.5,5.7-0.5c0.7,0,1.7,0.2,1.7,1.1c0,0.7-0.6,1.3-1,1.9c-0.1,0.2-0.4,0.2-0.6,0.3c-3.3,1-6.6,1-10.2,0.1
			C-1261.8,331.7-1260.5,330.6-1258.8,330.2z M-1249.2,373.1c-0.3,1.1-0.7,2.1-1.2,3.1c-0.2,0.4-0.7,0.6-1.1,0.8
			c-0.1-0.4-0.5-0.8-0.4-1.2c0.5-2.1,1.2-4.2,1.8-6.3c0.1-0.3,0.5-0.6,0.8-0.5c0.2,0,0.5,0.4,0.7,0.6
			C-1248.8,370.8-1248.9,372-1249.2,373.1z M-1212.5,339.3c-0.2,2.5-0.4,5-0.7,7.5c0,0.4,0,0.9,0,1.3c-0.2,1.9-1.4,3-3.4,3.3
			c-1.5,0.2-2.5-0.4-3-1.8c-1.5-4-0.3-8.7,3.3-10.7c0.9-0.5,2.1-0.6,3.2-0.7C-1213,338.2-1212.5,338.9-1212.5,339.3z"/>
	</g>
	<path class="st2" d="M-1182.5,329.6c0,0-1.2,11.3-1.5,12.6c-0.3,1.3-1.6-0.6-1.6-0.6l1-8.8L-1182.5,329.6z"/>
</g>
<rect x="-1673.6" y="247" class="st2" width="270" height="162"/>
<g>
	<path class="st0" d="M-1466.1,298c1.9-0.5,2.8-1.2,2.9-1.4l0,0c2.4-3.4,0.2-6.9,0-7.2c-0.4-0.4-0.8-0.8-1.2-1.2l0,0
		c-0.7-0.1-1.1,0.4-1.1,0.4c-0.6,1.2-1.2,2.3-2.2,3.1c-0.7,0.4-1.6,0.3-2.3,0c-1-0.4-1.2-1.4-1.2-2.3c-0.1-1.9-0.1-3.7,0.6-5.5
		c0.5-1.3,1-2.7,1.4-4c0.4-1.4,0.5-2.8-0.6-3.9c-0.6-0.6-1.4-0.9-2-1.3c-1.3-0.8-2.8-0.5-3.5,0.8c-3.2-0.6-6.3-0.1-9.2,1.4
		c-2.3,1.2-4.2,2.8-5.2,5.3c-1.1,2.8-1.1,5.6-0.6,8.5c0.3,1.5-0.3,3-1.6,3.5c-0.8,0.3-1.5,0.3-2-0.7c-0.7-1.5-0.4-3-0.1-4.4
		c0.7-2.6,1.5-5.1,2.3-7.6c0.5-1.7,0.3-3.3-1.2-4.4c-0.8-0.6-1.6-1-2.4-1.6c-0.8-0.5-1.1-0.1-1.4,0.6c-0.8,2-1.7,3.9-2.5,5.8
		c-1.4,3.2-3.3,6.1-4.2,9.5c-0.4,1.7-1.3,3.2-2,4.8c-0.1,0-0.1,0-0.2,0c0-0.2-0.1-0.4,0-0.6c0.5-2.3,1-4.6,1.5-6.9
		c0.3-1.2,0.8-2.3,1-3.4c0.6-3-0.8-5.4-3.7-6.2c-0.6-0.2-1-0.2-1.2,0.5c-1.4,5.1-2.8,10.3-3,15.6c-0.1,1.8,0,3.8-1.4,5.3
		c-0.3,0.3-0.9,0.8-1.1,0.7c-0.4-0.2-0.8-0.7-1-1.2c-0.2-0.4-0.1-0.9-0.1-1.3c0.1-3.9,1.3-7.6,2.3-11.4c0.3-1.2,0.5-2.5-0.4-3.4
		c-1-1.1-2.3-1.9-3.6-2.8c-0.9-0.6-1.4-0.1-1.9,0.7c-0.2,0.3-0.5,0.6-0.9,0.7c-1.5,0.3-3.1,0.3-4.6,0.6c-3.6,0.8-6.4,2.8-8.1,6.2
		c-1.5,3.2-1.5,6.5-1.4,9.9c0.1,2.1-1,4.1-2.9,5c-1,0.5-1.6,0.3-1.8-0.8c-0.2-0.9-0.3-1.9-0.3-2.9c0.2-2.9,1-5.6,2-8.4
		c0.3-1,0.7-2,0.6-3c-0.2-2.5-0.9-3.4-4.4-4.3c-0.8-0.2-1.2,0-1.4,0.8c-0.6,3.5-1.3,7.1-1.9,10.6c-0.3,2.3-0.4,4.7-0.6,7
		c-0.1,0.9-1.1,1.8-1.9,1.8s-1.6-0.8-1.5-1.8c0-1.3,0-2.7,0.4-4c0.6-2.2,1.6-4.4,2.3-6.6c0.4-1.2,0.6-2.5,0.7-3.7
		c0.1-2-1.6-4-3.5-4.4c-1.2-0.2-1.5,0-1.4,1.2c0.1,1.8-0.7,3-2.3,3.5c-1,0.3-2.1,0.3-3.2,0.5c-0.9,0.1-1.3-0.2-0.9-1.2
		c0.4-0.8,0-1.3-0.8-1.2c-1.4,0.1-2.8,0.2-4.2,0.5c-1.3,0.2-1.9,1.1-1.6,2.4c0.2,1,0.6,2,0.9,3c0.3,0.8,0.8,1.7,0.8,2.5
		c0,1.9-0.2,3.7-0.5,5.6c-0.4,2.4-1.6,4.4-3.2,6.2c-0.8,0.8-1.4,0.7-1.7-0.4c-0.3-1-0.6-2.1-0.5-3.1c0.3-3.4,0.7-6.8,1.1-10.3
		c0.4-3.2,1.5-6.1,3-8.8c1.2-2.2,1.6-4,0-5.7c-0.7-0.7-1.7-1.2-2.6-1.7c-1.8-1-2.6-0.6-2.9,1.4c0,0.1,0,0.3-0.1,0.4
		c-0.7,3.4-1.5,6.7-2.2,10.1c-0.2,1.2-0.9,1.7-2.1,1.7c-3.2,0-5.6,1.6-7.5,3.9c-3.4,4.2-4.8,9-3.1,14.4c0.2,0.6-0.1,1.5-0.5,2
		c-1.3,1.7-4.4,1.6-5.6-0.3c-1.8-2.7-2.4-5.7-2.3-8.9c0-0.9,0.3-1.4,1.3-1.7c2.2-0.8,4.2-3.9,4.2-6.1c0-1-0.4-1.4-1.4-1.2
		c-0.6,0.1-1.1,0.2-1.7,0.3c-0.8,0.1-1.1-0.3-0.9-1.1c0.2-1,0.4-2.1,0.7-3.1c0.6-2.3,1.3-4.6,1.9-6.9s-0.6-4.6-2.6-4.9
		c-2.3-0.3-4.6,0.1-6.5,1.4c-3.7,2.6-5.9,6.2-7.2,10.4c-1,3.3-1.6,6.8-2.5,10.1c-1,3.6-2.1,7.1-3.4,10.5c-0.6,1.5-1.6,3.1-2.9,4.1
		c-2.8,2.3-6,2.8-9.7,2.2c-3.5-0.6-6.3-2.1-9-4.3c-1.3-1.1-2.8-2.1-4.2-2.9c-1.3-0.8-2.7-0.1-2.7,1.5c0,1.4,0,2.8,0.3,4.1
		c0.4,1.4,0.8,3.1,1.8,4.1c1.3,1.3,3,2.2,4.6,3.1c3.7,2,7.7,2.7,11.8,2.6c1.4,0,2.9,0,4.2-0.5c3.3-1.2,6.1-3.1,8.2-6.2
		c3-4.5,5.7-9.1,7-14.5c0.5-2.2,0.6-2.2,3-2.1c0.1,0,0.2,0,0.3,0c0.7,0,0.9,0.3,0.9,1c0,1.4,0.1,2.8,0.2,4.3c0.2,3.4,1,6.6,4.2,8.6
		c2.3,1.4,4.6,2.4,7.1,0.9c1-0.5,1.9-1.2,2.7-2c0.6-0.6,1.1-0.6,1.9-0.4c1.8,0.4,3.6,0.8,5.4,0.9c1.2,0,2.6-0.4,3.4-1.1
		c1.3-1.1,2.5-1.3,4.1-1.1c2,0.2,3.8-0.4,5.1-2.2c2.4-3.3,3.6-7.1,4.5-10.9c1-4.1,0.4-3.3,4.3-3.7c0.1,0,0.1,0,0.3,0.1
		c0,0.3,0,0.7-0.1,1c-0.6,2.4-0.4,4.9,0.3,7.2c0.5,1.7,1,3.5,2.8,4.2c2.1,0.9,4.4,1,6.4-0.2c1.1-0.6,1.9-0.5,2.9,0
		c2.2,1.1,4.3,0.7,6.2-0.7c0.8-0.6,1.6-1.1,2.3-1.8c0.6-0.5,1-0.6,1.7-0.2c2.9,1.5,5.9,1.8,8.8,0.1c1.3-0.8,2.5-0.8,3.9-0.2
		c2.3,1,4.4,0.7,6.3-1c0.7-0.6,1.3-0.7,2.2-0.2c1.4,0.8,2.9,0.6,3.8-0.3c1.3-1.3,2-2.9,2.5-4.7c0.6-2.3,1.4-4.5,2.1-6.8
		c0-0.1,0.2-0.2,0.4-0.4c0.5,1.5,0.8,2.8,1.3,4.1c1.4,3.4,4.8,4.3,7.6,2.1c0.8-0.7,1.6-1.4,2.3-2.1c1.1,0.8,2,1.7,3.1,2.1
		c3,1.1,5.9,1,8.7-0.7c0.4-0.3,1.1-0.5,1.5-0.3c0.1,0.1,0.2,0.1,0.3,0.2C-1475,297.2-1469.9,298.7-1466.1,298z M-1594.2,292.4
		c-0.1,0.5-0.2,1.1-0.4,1.6c-0.2,0.4-0.5,0.8-0.9,0.9c-1.8,0.4-2.1,0.1-1.5-1.7c0.4-1.3,0.8-2.7,1.3-4c0.1-0.4,0.3-0.8,0.6-1
		c0.3-0.3,0.8-0.5,1.1-0.5c0.2,0,0.4,0.6,0.7,0.9C-1593.6,289.8-1593.9,291.1-1594.2,292.4z M-1571.8,305c0,1.1,0,2.2-0.1,3.2
		c-0.1,1.6-0.2,1.7-1.8,2.1c-2,0.5-4.1-0.2-4.6-1.8c-0.5-1.6-0.5-3.2-0.2-4.9c0.5-2.6,2.3-4.2,4.2-5.7c0.7-0.5,1.6-0.6,2.6-1
		C-1571.7,299.8-1571.7,302.4-1571.8,305z M-1520.3,289.9c-0.1,1.1-0.4,2.3-0.4,3.4c0,2.1,0,4.3,0.1,6.4c0.1,1-0.1,1.8-1,2.2
		c-1.4,0.6-2.8,1.2-4.2,1.3c-1.7,0.1-2.5-0.8-2.9-2.5c-0.1-0.4-0.1-0.7-0.2-1.1c-0.3-3.5,0.3-6.8,2.7-9.1c0.6-0.5,1.2-1,2-1.4
		c0.8-0.4,1.8-0.6,2.7-0.7C-1520.4,288.4-1520.1,288.7-1520.3,289.9z M-1477.5,282.7c0,3.2,0.1,6.3,0.2,9.5c0,0.9-0.2,1.5-0.9,1.9
		c-3.5,2.3-6.6,0.2-6.7-2c-0.4-3.9,0.4-6.6,2.2-9.1c1-1.3,2.8-1.8,4.3-1.4C-1477.7,281.8-1477.5,282-1477.5,282.7z"/>
	<path class="st0" d="M-1540.1,283.5c3.3,0.9,5.6-1.4,5.7-4.6c0-1-0.5-1.3-1.5-1.2c-1.2,0.3-2.4,0.7-3.5,1c-1.5,0.4-2.3,1.8-1.9,3.2
		C-1541.2,282.5-1540.6,283.3-1540.1,283.5z"/>
</g>
<g>
	<g>
		<path class="st0" d="M-1519.6,323.8c3.3,0.9,5.6-1.4,5.7-4.6c0-1-0.5-1.3-1.5-1.2c-1.2,0.3-2.4,0.7-3.5,1
			c-1.5,0.4-2.3,1.8-1.9,3.2C-1520.6,322.9-1520.1,323.7-1519.6,323.8z"/>
		<path class="st0" d="M-1473.9,315c3.3,0.9,5.6-1.4,5.7-4.6c0-1-0.5-1.3-1.5-1.2c-1.2,0.3-2.4,0.7-3.5,1c-1.5,0.4-2.3,1.8-1.9,3.2
			C-1474.9,314.1-1474.4,314.9-1473.9,315z"/>
		<path class="st0" d="M-1460.2,335.8c-0.5-2.5-2.1-4.2-3.9-5.9l0,0c-0.7-0.1-1.1,0.4-1.1,0.4c-0.8,1.7-1.8,3.2-3.5,4.1
			c-1.3,0.7-2.3,0.1-2.4-1.3c-0.1-0.9-0.2-1.9,0-2.9c0.4-2.4,0.9-4.8,1.4-7.1c0.7-3.2,0.1-3.8-2.1-5.3c-0.7-0.5-1.5-0.7-2.2-1
			c-1-0.4-1.2-0.3-1.3,0.8c-0.3,1.7-0.6,3.4-0.8,5.1c-0.3,2.5-0.6,5.1-0.9,7.6c0,0.3-0.1,0.7,0,1.1c0.5,1.7-0.1,3.1-1,4.4
			c-0.5,0.7-1.4,0.7-1.8-0.1c-0.4-0.9-0.8-2-0.8-3c0-3,1.2-5.8,2.1-8.5c0.7-2,1.7-4,0-5.9c-1-1.2-2.3-2.1-3.5-3.1
			c-0.2-0.2-0.7-0.1-0.9-0.1c-0.4,1.6-0.8,3-1.2,4.4c-0.1,0.3-0.5,0.7-0.9,0.8c-1.4,0.4-2.8,0.6-4.4,0.9c0.2-0.8,0.4-1.3,0.6-2
			c-0.2-0.1-0.5-0.2-0.8-0.3c-2-0.2-3.8,0.2-5.6,1.1c-1.1,0.5-1.4,1.2-0.9,2.2c0.7,1.3,1.6,2.6,2.4,3.9c0.2,0.3,0.3,0.6,0.5,0.9
			c-1,7.6-5.9,13.4-5.9,13.4c-3,2.4-6.1,0.5-7.8-1.1c-0.2-0.2-0.8-1-0.7-3.1l0,0c0.7-0.1,1.3-0.1,2-0.1c5.5-0.3,8.6-3.1,9.1-8.5
			c0.4-3.5-2.6-6.5-6.1-6.1c-2.9,0.3-5.3,1.7-7,3.9c-3.5,4.2-4.6,8.9-2.5,14.1c0.1,0.3,0.3,0.7,0.1,1c-0.5,1.3-1.3,2.3-2.5,3
			c-2,1-3.3,0.2-3-2c0.4-2.7,1.1-5.5,1.6-8.2c0.2-1.1,0.7-2.3,0.7-3.4c0-2.2-2.4-4.4-4.6-4.3c-0.3,0-0.8,0.4-0.8,0.6
			c-0.3,1.1-0.5,2.3-0.8,3.4s-0.9,2.1-1,3.2c-0.2,2.8-0.2,5.6-0.3,8.4c0,0.9-0.3,1.9-0.6,2.8c-0.3,0.9-1,1.5-1.8,1.3
			c-0.6-0.1-1.2-0.8-1.5-1.3c-1-1.9-0.4-3.9,0.2-5.7c0.6-2.1,1.6-4.1,2.3-6.2c1.3-3.8,1-5.2-1.8-7c-0.2-0.2-0.5-0.3-0.7-0.4
			c-0.9-0.5-1.2-0.5-1.6,0.5c-0.3,0.6-0.4,1.3-0.7,1.9c-0.8,1.4-2,2.7-2.6,4.2c-1.4,3.4-2.5,6.9-3.8,10.3c-0.4,1.1-0.9,2.1-1.3,3.2
			c-0.1,0-0.2-0.1-0.3-0.1c0-0.1,0-0.3,0-0.4c0.8-2.9,1.5-5.9,2.3-8.8c0.4-1.3,0.6-2.4,0.1-3.7c-0.8-2.1-2.7-2.7-4.4-3.6
			c-0.6-0.3-0.8,0.2-0.8,0.6c0.1,2-0.7,3.9-1.3,5.8c-1.3,4-1.6,8.1-1.6,12.2c0,1.3-0.5,2.5-1,3.7c-0.2,0.4-1.1,1-1.4,0.9
			c-0.5-0.2-0.9-0.9-1-1.5c-0.6-3.6,0.2-6.9,1.6-10.2c1.7-3.9,0.1-6.8-3.6-8.5c-0.4-0.2-1-0.4-1.2,0.4c-0.1,0.2-0.5,0.4-0.8,0.4
			c-1.4,0.1-2.8,0-4.1,0.2c-4,0.8-6.9,2.9-8.3,6.9c-0.3,0.7-0.3,1.5-0.5,2.3c-0.8,2.3-0.7,4.6-0.6,7c0,1-0.2,2.1-0.5,3.1
			c-0.2,0.7-0.9,1.5-1.7,1.3c-0.6-0.2-1.2-0.9-1.4-1.6c-0.5-2-0.2-4,0.4-5.9c0.7-2.4,1.5-4.8,2.2-7.3c0.5-1.9,0.1-3.6-1.6-4.7
			c-1-0.7-2.2-1.1-3.4-1.5c-1-0.3-1.2-0.1-1.1,1c0.1,0.9,0.3,1.9,0,2.7c-0.4,1.4-2.4,2.1-4.2,1.5c0.4-1.1,0.3-1.4-0.8-1.8
			c-0.4-0.1-0.8-0.3-1.1-0.2c-1.7,0.2-3.4,0.5-5.1,0.9c-1.1,1.3,0.1,2.8,0.1,2.8c1.6,2.8,1.2,3.8,1.2,3.8c0,1.2-1.9,6.1-1.9,6.1
			c-0.5,1.1-0.6,1-0.6,1c-0.7,0.1-0.8-0.9-0.8-0.9c-0.2-0.8-0.4-1.6-0.4-2.5c0-1.2,0.2-2.4,0.4-3.6c0.1-0.9-0.2-1.2-1.1-1
			c-1.8,0.5-3.6,0.9-5.4,1.5c-1.7,0.5-2.1,0.8-1.9,2.7c0.2,2.1-0.3,4-0.9,6c-1.4,4.6-4.2,8.1-9.2,8.9c-3.9,0.7-6.6-0.3-7.9-3.9
			c-0.5-1.3-0.7-2.7-0.6-4.1c0.4-4.4,2.2-8.3,4.1-12.2c1.2-2.5,0.7-2.4,3.6-1.7c0.3,0.1,0.6,0.1,0.8,0.2c4.2,1.1,8.2,1,12.2-0.8
			c4.2-1.9,6.6-4.9,6.5-9.7c-0.1-2.3-1.6-5.1-4.1-5.8c-3.4-0.9-6.7-0.4-10.1,0.2c-3.1,0.5-5.7,1.9-7.8,4.2c-1.2,1.3-2.3,2.8-3.6,4.1
			c-0.4,0.4-1,0.8-1.6,0.8c-2.7,0.4-5.5,0.6-8.3,1.1c-3.2,0.6-6.2,1.5-8.9,3.4c-1.1,0.8-2.4,1.6-3.1,2.7c-1.6,2.5-1.7,5.4-0.8,8.2
			c0.1,0.4,0.5,0.9,0.8,1.1c0.2,0.1,0.7-0.3,1-0.6c1.3-1.4,2.3-3,3.8-4.1c2.6-2.1,5.3-3.9,8.5-4.8c1.4-0.4,2.8-1.2,4.4-0.8
			c-0.1,0.4-0.2,0.7-0.3,1c-0.5,1.5-1.1,3-1.4,4.5c-1,4.5-2,8.9-1.9,13.6c0,3.6,1.2,6.5,4.2,8.6c2.6,1.7,5.6,2,8.6,1.7
			c5.2-0.6,9.2-3.6,12.4-7.6c0.7-0.9,1.4-1.9,2.1-2.9c0.1,0,0.2,0.1,0.4,0.1c-0.1,0.8,0.1,1.8-0.3,2.5c-0.7,1.3-1.5,2.6-2.4,3.8
			c-2.4,3.3-4.7,6.7-6.1,10.6c-0.7,1.8-1.1,3.8-0.5,5.8c0.5,1.6,1.2,3.2,2.9,3.9c2.1,0.9,4.3,0.7,6.3-0.4c2.9-1.7,4.8-4.3,6.4-7.1
			c0.3-0.6,0.6-1.2,0.7-1.9c0.9-4.6,1.1-9.1,0.3-13.7c-0.1-0.7,0.1-1.6,0.4-2.2c1.6-3.6,3.6-6.9,4.4-10.9c0.2-1,0.6-2,1-2.9
			c0.1-0.3,0.4-0.6,0.7-0.7c0.9-0.2,1.8-0.3,2.8-0.4c0,0.2,0,0.4,0,0.6c-0.1,2.3-0.3,4.6-0.3,6.8c0,4,3.5,7.1,7.2,6.3
			c1.2-0.3,2.3-0.7,3.1-1.7c0.5-0.6,1-0.8,1.8-0.2c1,0.6,2.1,1.1,3.2,1.2c2.3,0.3,4.3-0.7,6.2-1.7c0.8-0.4,1.3-0.4,2,0.2
			c1.2,1,2.6,1.4,4,0.7c1.3-0.6,2.5-1.5,3.8-2.2c0.3-0.2,0.9-0.3,1.2-0.1c1.8,1.3,3.8,0.9,4.7-1.2c0.9-2.2,1.6-4.5,2.4-6.8
			c0.5-1.4,0.9-2.8,1.3-4.2c0.1,0,0.3,0,0.4,0.1c0.2,1.2,0.1,2.5,0.5,3.6c0.9,2.7,4.2,5.1,7.3,3.7c0.9-0.4,1.7-0.9,2.5-1.4
			c0.7-0.5,1.1-0.6,1.9-0.1c1.2,0.7,2.5,1.3,4.1,1c2-0.3,3.6-1.2,4.9-2.7c0.9-1.1,1.7-1.2,2.9-0.4c0.5,0.4,1.1,0.6,1.8,0.8l0,0
			c0,0,6,2.2,10-2.2c2.7-2.9,4.7-6.2,5.6-10.1c0.4-1.7,0.8-3.4,1.2-5.1c0.3-1.2,1.3-1,2.1-0.9c0.4,0,0.9,0.7,1,1.2
			c0.2,0.8,0.1,1.6,0,2.4c-0.2,2.7,0,5.3,1.3,7.6c0.7,1.2,1.6,2.2,3,2.5c1.6,0.3,3.1-0.1,4.5-0.9c1-0.6,1.8-1.4,2.7-2.1
			c2.2,2.2,4.9,1.8,7.5,1.8c-0.1,0.4-0.2,0.8-0.3,1.1c-1.3,2.9-3,5.3-5.5,7.4c-2.7,2.2-5.6,3.9-8.7,5.3c-2.6,1.2-5.3,1.6-8.1,2
			c-2.5,0.4-5.1,0.9-7.6,1c-4.8,0.1-9.6-0.1-14.4-0.2c-4.9-0.1-9.8-0.5-14.6,0.2c-5,0.7-10.1,1.2-15.1,2c-3.6,0.6-7,1.5-10.6,2.2
			c-5.4,1.1-10.7,2.4-15.7,4.7c-2.7,1.2-5.2,2.8-7.3,5c-1,1.1-1.8,2.3-2.8,3.4c-1.6,1.8-3.3,3.7-4.9,5.5c-0.3,0.3-0.6,0.9-0.5,1
			c0.3,0.4,0.8,1,1.3,1.1c1.3,0.2,2.6,0.2,3.8,0c3-0.4,5.4-2,7.7-4c1-0.9,1.9-2.1,3-2.9c3.4-2.4,7.2-4.4,11.1-5.9c3-1.1,6-2.1,9-3.1
			c2.4-0.8,4.9-1.6,7.4-1.9c4.7-0.7,9.4-1.1,14-1.7c1.2-0.1,2.4-0.2,3.6-0.2c7.3,0.3,14.5,0.7,21.7,1.1c4.8,0.3,9.6,0.1,14.2-1.3
			c4.2-1.2,8.2-2.8,12-5c3.2-1.8,6.4-3.5,8.5-6.6c1.4-2,2.9-4.1,4-6.3C-1460.2,341.3-1459.7,338.6-1460.2,335.8z M-1504,327.4
			c0.4-0.2,0.9,0,1.4-0.1c0,0.4,0.1,0.9-0.1,1.3c-1,1.9-2.4,3.2-4.8,3.4C-1507,330-1506.1,328.2-1504,327.4z M-1597.8,330.2
			c1.9-0.4,3.8-0.5,5.7-0.5c0.7,0,1.7,0.2,1.7,1.1c0,0.7-0.6,1.3-1,1.9c-0.1,0.2-0.4,0.2-0.6,0.3c-3.3,1-6.6,1-10.2,0.1
			C-1600.8,331.7-1599.5,330.6-1597.8,330.2z M-1588.2,373.1c-0.3,1.1-0.7,2.1-1.2,3.1c-0.2,0.4-0.7,0.6-1.1,0.8
			c-0.1-0.4-0.5-0.8-0.4-1.2c0.5-2.1,1.2-4.2,1.8-6.3c0.1-0.3,0.5-0.6,0.8-0.5c0.2,0,0.5,0.4,0.7,0.6
			C-1587.8,370.8-1587.9,372-1588.2,373.1z M-1551.5,339.3c-0.2,2.5-0.4,5-0.7,7.5c0,0.4,0,0.9,0,1.3c-0.2,1.9-1.4,3-3.4,3.3
			c-1.5,0.2-2.5-0.4-3-1.8c-1.5-4-0.3-8.7,3.3-10.7c0.9-0.5,2.1-0.6,3.2-0.7C-1551.9,338.2-1551.5,338.9-1551.5,339.3z"/>
	</g>
	<path class="st0" d="M-1521.5,329.6c0,0-1.2,11.3-1.5,12.6c-0.3,1.3-1.6-0.6-1.6-0.6l1-8.8L-1521.5,329.6z"/>
</g>
<rect x="-1150.7" y="106.1" class="st2" width="77.1" height="74"/>
<rect x="-1021.7" y="664" class="st0" width="270" height="162"/>
<rect x="-885.6" y="707.7" class="st4" width="170.1" height="22.3"/>
<text transform="matrix(1 0 0 1 -885.5966 719.5812)" class="st2" style="font-family:'Oswald-Medium'; font-size:13.5742px;">ADRIANA GRANIERI    </text>
<circle class="st1" cx="-951.6" cy="744.1" r="36.7"/>
<text transform="matrix(1 0 0 1 -885.5966 732.4083)" class="st1" style="font-family:'Oswald-Light'; font-size:8.3533px;">GRAPHIC DESIGNER</text>
<text transform="matrix(1 0 0 1 -885.5966 732.4083)" class="st6" style="font-family:'Oswald-Light'; font-size:8.3533px;">GRAPHIC DESIGNER</text>
<g>
	<text transform="matrix(1 0 0 1 -885.5966 756.4689)" class="st1" style="font-family:'Oswald-Light'; font-size:8.3533px;">a.granie</text>
	<text transform="matrix(1 0 0 1 -885.5966 756.4689)" class="st7" style="font-family:'Oswald-Light'; font-size:8.3533px;">a.granie</text>
	<text transform="matrix(1 0 0 1 -862.3966 756.4689)" class="st1" style="font-family:'Oswald-Light'; font-size:8.3533px;">ri@</text>
	<text transform="matrix(1 0 0 1 -862.3966 756.4689)" class="st7" style="font-family:'Oswald-Light'; font-size:8.3533px;">ri@</text>
	<text transform="matrix(1 0 0 1 -852.2966 756.4689)" class="st1" style="font-family:'Oswald-Light'; font-size:8.3533px;">h</text>
	<text transform="matrix(1 0 0 1 -852.2966 756.4689)" class="st7" style="font-family:'Oswald-Light'; font-size:8.3533px;">h</text>
	<text transform="matrix(1 0 0 1 -848.6966 756.4689)" class="st1" style="font-family:'Oswald-Light'; font-size:8.3533px;">otmail.com</text>
	<text transform="matrix(1 0 0 1 -848.6966 756.4689)" class="st7" style="font-family:'Oswald-Light'; font-size:8.3533px;">otmail.com</text>
</g>
<g>
	<text transform="matrix(1 0 0 1 -885.5966 768.4767)" class="st1" style="font-family:'Oswald-Light'; font-size:8.3533px;">cell: 613.513.3722</text>
	<text transform="matrix(1 0 0 1 -885.5966 768.4767)" class="st7" style="font-family:'Oswald-Light'; font-size:8.3533px;">cell: 613.513.3722</text>
</g>
<g>
	<text transform="matrix(1 0 0 1 -885.5966 779.7882)" class="st1" style="font-family:'Oswald-Light'; font-size:8.3533px;">behance.ne</text>
	<text transform="matrix(1 0 0 1 -885.5966 779.7882)" class="st7" style="font-family:'Oswald-Light'; font-size:8.3533px;">behance.ne</text>
	<text transform="matrix(1 0 0 1 -852.5966 779.7882)" class="st1" style="font-family:'Oswald-Light'; font-size:8.3533px;">t</text>
	<text transform="matrix(1 0 0 1 -852.5966 779.7882)" class="st7" style="font-family:'Oswald-Light'; font-size:8.3533px;">t</text>
	<text transform="matrix(1 0 0 1 -849.9966 779.7882)" class="st1" style="font-family:'Oswald-Light'; font-size:8.3533px;">/</text>
	<text transform="matrix(1 0 0 1 -849.9966 779.7882)" class="st7" style="font-family:'Oswald-Light'; font-size:8.3533px;">/</text>
	<text transform="matrix(1 0 0 1 -847.3966 779.7882)" class="st1" style="font-family:'Oswald-Light'; font-size:8.3533px;">agranieri</text>
	<text transform="matrix(1 0 0 1 -847.3966 779.7882)" class="st7" style="font-family:'Oswald-Light'; font-size:8.3533px;">agranieri</text>
</g>
<g>
	<path class="st4" d="M-932.7,728.6c-0.5-0.1-1.2,0.2-1.7,0.5s-0.8,0.8-1.1,1.4c-0.9,1.8-1.7,3.7-2.6,5.5c-1.1,2.4-0.9,2.8,1.8,2.7
		c0.5,0,1.1-0.6,1.4-1.1c0.4-0.7,0.6-1.5,0.8-2.3c0.7-1.7,1.3-3.5,2.1-5.4C-932.2,729.5-932.3,728.7-932.7,728.6z"/>
	<path class="st0" d="M-919.6,767l-1.8-2.2c0,0-3.4,3.5-7.5-0.4c-0.2-0.3-0.4-0.6-0.6-0.9c-2-4.2-2.4-8.6-1.7-13.1
		c0.2-1.2,0.7-1.9,2.1-2.2c3.2-0.7,6.8-4.8,7.1-7.9c0.1-1.4-0.4-2-1.8-2c-0.8,0-1.6,0.1-2.4,0.1c-1.2,0-1.5-0.6-1.1-1.7
		c0.5-1.4,1-2.8,1.6-4.2c1.3-3.2,2.7-6.3,4-9.5c1.3-3.1,0-6.7-2.7-7.4c-3.3-0.9-6.6-0.8-9.6,0.8c-5.7,3-9.6,7.8-12.2,13.5
		c-2.1,4.5-3.5,9.4-5.5,14c-2.1,4.9-4.3,9.7-6.9,14.4c-1.1,2.1-2.9,4.1-4.9,5.3c-4.4,2.8-9.2,2.9-14.2,1.4c-4.9-1.5-8.6-4.2-12-7.8
		c-1.7-1.8-3.5-3.4-5.5-5c-1.8-1.4-3.9-0.6-4.2,1.7c-0.3,2-0.5,4-0.3,5.9c0.3,2.1,0.6,4.5,1.8,6.2c1.5,2.1,3.9,3.7,6,5.2
		c4.9,3.5,10.4,5.2,16.3,5.8c2,0.2,4.2,0.5,6.1,0.1c1.7-0.4,3.3-0.9,4.9-1.6l0,0c0,0,9.7-2.3,19.1-21.7l0,0c0.5-1.1,1-2.2,1.5-3.3
		c1.2-3.1,1.3-3.1,4.7-2.4c0.2,0,0.3,0.1,0.5,0.1c1,0.1,1.2,0.6,1.1,1.5c-0.2,2-0.4,4.1-0.5,6.1c-0.4,5,0.2,9.5,4.4,13
		c3,2.4,6.1,4.2,10,2.6c1.2-0.5,2.3-1.1,3.4-1.8l-0.6-1.8L-919.6,767z M-934,735.4c-0.3,0.8-0.4,1.6-0.8,2.3
		c-0.3,0.5-0.9,1.1-1.4,1.1c-2.7,0.2-2.9-0.3-1.8-2.7c0.9-1.8,1.7-3.7,2.6-5.5c0.2-0.5,0.6-1,1.1-1.4c0.5-0.3,1.2-0.6,1.7-0.5
		c0.3,0.1,0.5,0.9,0.8,1.4C-932.6,731.9-933.3,733.6-934,735.4z"/>
</g>
<path class="st0" d="M-928.3,764.9c0,0-1.3-1.2-2.3-4.3l-1.1-0.2c0,0,0.1,3.1,0.2,3.2c0,0.1,1.2,2.7,1.4,2.9
	c0.2,0.1,1.7-0.2,1.7-0.2L-928.3,764.9z"/>
<g>
	<path class="st4" d="M-869.6,294.5c-0.9,0-1.9,0.2-2.7,0.7c-0.8,0.4-1.4,0.9-2,1.4c-2.4,2.3-3,5.6-2.7,9.1c0.1,0.4,0.1,0.7,0.2,1.1
		c0.4,1.7,1.2,2.6,2.9,2.5c1.4-0.1,2.8-0.8,4.2-1.3c0.9-0.4,1-1.2,1-2.2c-0.1-2.1-0.2-4.2-0.1-6.4c0-1.1,0.3-2.3,0.4-3.4
		C-868.2,294.8-868.4,294.4-869.6,294.5z"/>
	<path class="st4" d="M-926.5,309.7c-0.3,1.7-0.3,3.3,0.2,4.9c0.5,1.6,2.6,2.3,4.6,1.8c1.5-0.4,1.7-0.5,1.8-2.1
		c0.1-1.1,0.1-2.2,0.1-3.2c0.1-2.6,0.2-5.1,0.2-8c-1,0.4-2,0.5-2.6,1C-924.2,305.5-925.9,307.1-926.5,309.7z"/>
	<path class="st4" d="M-941.9,293.6c-0.4,0-0.8,0.2-1.1,0.5c-0.3,0.3-0.5,0.7-0.6,1c-0.4,1.3-0.8,2.7-1.3,4c-0.6,1.7-0.4,2,1.5,1.7
		c0.3-0.1,0.7-0.5,0.9-0.9c0.2-0.5,0.3-1.1,0.4-1.6c0.3-1.3,0.6-2.5,0.9-3.9C-941.5,294.2-941.7,293.6-941.9,293.6z"/>
	<path class="st4" d="M-826.3,287.6c-1.5-0.4-3.4,0.1-4.3,1.4c-1.8,2.4-2.6,5.2-2.2,9.1c0.1,2.2,3.2,4.3,6.7,2
		c0.7-0.4,0.9-1,0.9-1.9c-0.1-3.2-0.2-6.3-0.2-9.5C-825.5,288-825.7,287.8-826.3,287.6z"/>
	<path class="st0" d="M-811.2,295.5c-0.4-0.4-0.8-0.8-1.2-1.2c-0.7-0.1-1.1,0.4-1.1,0.4c-0.6,1.2-1.2,2.3-2.2,3.1
		c-0.7,0.4-1.6,0.3-2.3,0c-1-0.4-1.2-1.4-1.2-2.3c-0.1-1.9-0.1-3.7,0.6-5.5c0.5-1.3,1-2.7,1.4-4c0.4-1.4,0.5-2.8-0.6-3.9
		c-0.6-0.6-1.4-0.9-2-1.3c-1.3-0.8-2.8-0.5-3.5,0.8c-3.2-0.6-6.3-0.1-9.2,1.4c-2.3,1.2-4.2,2.8-5.2,5.3c-1.1,2.8-1.1,5.6-0.6,8.5
		c0.3,1.5-0.3,3-1.6,3.5c-0.8,0.3-1.5,0.3-2-0.7c-0.7-1.5-0.4-3-0.1-4.4c0.7-2.6,1.5-5.1,2.3-7.6c0.5-1.7,0.3-3.3-1.2-4.4
		c-0.8-0.6-1.6-1-2.4-1.6c-0.8-0.5-1.1-0.1-1.4,0.6c-0.8,2-1.7,3.9-2.5,5.8c-1.4,3.2-3.3,6.1-4.2,9.5c-0.4,1.7-1.3,3.2-2,4.8
		c-0.1,0-0.1,0-0.2,0c0-0.2-0.1-0.4,0-0.6c0.5-2.3,1-4.6,1.5-6.9c0.3-1.2,0.8-2.3,1-3.4c0.6-3-0.8-5.4-3.7-6.2
		c-0.6-0.2-1-0.2-1.2,0.5c-1.4,5.1-2.8,10.3-3,15.6c-0.1,1.8,0,3.8-1.4,5.3c-0.3,0.3-0.9,0.8-1.1,0.7c-0.4-0.2-0.8-0.7-1-1.2
		c-0.2-0.4-0.1-0.9-0.1-1.3c0.1-3.9,1.3-7.6,2.3-11.4c0.3-1.2,0.5-2.5-0.4-3.4c-1-1.1-2.3-1.9-3.6-2.8c-0.9-0.6-1.4-0.1-1.9,0.7
		c-0.2,0.3-0.5,0.6-0.9,0.7c-1.5,0.3-3.1,0.3-4.6,0.6c-3.6,0.8-6.4,2.8-8.1,6.2c-1.5,3.2-1.5,6.5-1.4,9.9c0.1,2.1-1,4.1-2.9,5
		c-1,0.5-1.6,0.3-1.8-0.8c-0.2-0.9-0.3-1.9-0.3-2.9c0.2-2.9,1-5.6,2-8.4c0.3-1,0.7-2,0.6-3c-0.2-2.5-0.9-3.4-4.4-4.3
		c-0.8-0.2-1.2,0-1.4,0.8c-0.6,3.5-1.3,7.1-1.9,10.6c-0.3,2.3-0.4,4.7-0.6,7c-0.1,0.9-1.1,1.8-1.9,1.8c-0.8,0-1.6-0.8-1.5-1.8
		c0-1.3,0-2.7,0.4-4c0.6-2.2,1.6-4.4,2.3-6.6c0.4-1.2,0.6-2.5,0.7-3.7c0.1-2-1.6-4-3.5-4.4c-1.2-0.2-1.5,0-1.4,1.2
		c0.1,1.8-0.7,3-2.3,3.5c-1,0.3-2.1,0.3-3.2,0.5c-0.9,0.1-1.3-0.2-0.9-1.2c0.4-0.8,0-1.3-0.8-1.2c-1.4,0.1-2.8,0.2-4.2,0.5
		c-1.3,0.2-1.9,1.1-1.6,2.4c0.2,1,0.6,2,0.9,3c0.3,0.8,0.8,1.7,0.8,2.5c0,1.9-0.2,3.7-0.5,5.6c-0.4,2.4-1.6,4.4-3.2,6.2
		c-0.8,0.8-1.4,0.7-1.7-0.4c-0.3-1-0.6-2.1-0.5-3.1c0.3-3.4,0.7-6.8,1.1-10.3c0.4-3.2,1.5-6.1,3-8.8c1.2-2.2,1.6-4,0-5.7
		c-0.7-0.7-1.7-1.2-2.6-1.7c-1.8-1-2.6-0.6-2.9,1.4c0,0.1,0,0.3-0.1,0.4c-0.7,3.4-1.5,6.7-2.2,10.1c-0.2,1.2-0.9,1.7-2.1,1.7
		c-3.2,0-5.6,1.6-7.5,3.9c-3.4,4.2-4.8,9-3.1,14.4c0.2,0.6-0.1,1.5-0.5,2c-1.3,1.7-4.4,1.6-5.6-0.3c-1.8-2.7-2.4-5.7-2.3-8.9
		c0-0.9,0.3-1.4,1.3-1.7c2.2-0.8,4.2-3.9,4.2-6.1c0-1-0.4-1.4-1.4-1.2c-0.6,0.1-1.1,0.2-1.7,0.3c-0.8,0.1-1.1-0.3-0.9-1.1
		c0.2-1,0.4-2.1,0.7-3.1c0.6-2.3,1.3-4.6,1.9-6.9c0.6-2.3-0.6-4.6-2.6-4.9c-2.3-0.3-4.6,0.1-6.5,1.4c-3.7,2.6-5.9,6.2-7.2,10.4
		c-1,3.3-1.6,6.8-2.5,10.1c-0.9,3-1.8,6-2.9,9c-0.6,1.6-1.9,4.3-3.8,5.9c-2.7,2.1-5.9,2.6-9.4,2s-6.3-2.1-9-4.3
		c-1.3-1.1-2.8-2.1-4.2-2.9c-1.3-0.8-2.7-0.1-2.7,1.5c0,1.4,0,2.8,0.3,4.1c0.4,1.4,0.8,3.1,1.8,4.1c1.3,1.3,3,2.2,4.6,3.1
		c2.5,1.4,5.2,2.1,8,2.4l0,0l1.6,0.2c1.9,0.2,3.6,0.1,5.1-0.2c0.2,0,0.5-0.1,0.7-0.1c0.1,0,0.3-0.1,0.4-0.1c0.1,0,0.1,0,0.2-0.1l0,0
		c1.9-0.6,3.2-1.4,4-1.9l0,0c0,0,2.7-1.8,4.2-4.2l0,0c3.2-4.3,5.3-9.6,5.3-9.6l0,0c0.7-1.6,1.2-3.2,1.7-4.9c0.5-2.2,0.6-2.2,3-2.1
		c0.1,0,0.2,0,0.3,0c0.7,0,0.9,0.3,0.9,1c0,1.4,0.1,2.8,0.2,4.3c0.2,3.4,1,6.6,4.2,8.6c2.3,1.4,4.6,2.4,7.1,0.9c1-0.5,1.9-1.2,2.7-2
		c0.6-0.6,1.1-0.6,1.9-0.4c1.8,0.4,3.6,0.8,5.4,0.9c1.2,0,2.6-0.4,3.4-1.1c1.3-1.1,2.5-1.3,4.1-1.1c2,0.2,3.8-0.4,5.1-2.2
		c2.4-3.3,3.6-7.1,4.5-10.9c1-4.1,0.4-3.3,4.3-3.7c0.1,0,0.1,0,0.3,0.1c0,0.3,0,0.7-0.1,1c-0.6,2.4-0.4,4.9,0.3,7.2
		c0.5,1.7,1,3.5,2.8,4.2c2.1,0.9,4.4,1,6.4-0.2c1.1-0.6,1.9-0.5,2.9,0c2.2,1.1,4.3,0.7,6.2-0.7c0.8-0.6,1.6-1.1,2.3-1.8
		c0.6-0.5,1-0.6,1.7-0.2c2.9,1.5,5.9,1.8,8.8,0.1c1.3-0.8,2.5-0.8,3.9-0.2c2.3,1,4.4,0.7,6.3-1c0.7-0.6,1.3-0.7,2.2-0.2
		c1.4,0.8,2.9,0.6,3.8-0.3c1.3-1.3,2-2.9,2.5-4.7c0.6-2.3,1.4-4.5,2.1-6.8c0-0.1,0.2-0.2,0.4-0.4c0.5,1.5,0.8,2.8,1.3,4.1
		c1.4,3.4,4.8,4.3,7.6,2.1c0.8-0.7,1.6-1.4,2.3-2.1c1.1,0.8,2,1.7,3.1,2.1c3,1.1,5.9,1,8.7-0.7c0.4-0.3,1.1-0.5,1.5-0.3
		c0.1,0.1,0.2,0.1,0.3,0.2c0,0,5,1.6,8.8,0.9c1.9-0.5,2.8-1.2,2.9-1.4l0,0C-808.7,299.2-811,295.7-811.2,295.5z M-942.2,298.4
		c-0.1,0.5-0.2,1.1-0.4,1.6c-0.2,0.4-0.5,0.8-0.9,0.9c-1.8,0.4-2.1,0.1-1.5-1.7c0.4-1.3,0.8-2.7,1.3-4c0.1-0.4,0.3-0.8,0.6-1
		c0.3-0.3,0.8-0.5,1.1-0.5c0.2,0,0.4,0.6,0.7,0.9C-941.6,295.9-941.9,297.1-942.2,298.4z M-919.8,311c0,1.1,0,2.2-0.1,3.2
		c-0.1,1.6-0.2,1.7-1.8,2.1c-2,0.5-4.1-0.2-4.6-1.8c-0.5-1.6-0.5-3.2-0.2-4.9c0.5-2.6,2.3-4.2,4.2-5.7c0.7-0.5,1.6-0.6,2.6-1
		C-919.7,305.9-919.8,308.4-919.8,311z M-868.3,296c-0.1,1.1-0.4,2.3-0.4,3.4c0,2.1,0,4.3,0.1,6.4c0.1,1-0.1,1.8-1,2.2
		c-1.4,0.6-2.8,1.2-4.2,1.3c-1.7,0.1-2.5-0.8-2.9-2.5c-0.1-0.4-0.1-0.7-0.2-1.1c-0.3-3.5,0.3-6.8,2.7-9.1c0.6-0.5,1.2-1,2-1.4
		s1.8-0.6,2.7-0.7C-868.4,294.4-868.2,294.8-868.3,296z M-826.2,300.1c-3.5,2.3-6.6,0.2-6.7-2c-0.4-3.9,0.4-6.6,2.2-9.1
		c1-1.3,2.8-1.8,4.3-1.4c0.6,0.2,0.8,0.3,0.8,1.1c0,3.2,0.1,6.3,0.2,9.5C-825.2,299.1-825.5,299.7-826.2,300.1z"/>
	<path class="st0" d="M-888.1,289.5c3.3,0.9,5.6-1.4,5.7-4.6c0-1-0.5-1.3-1.5-1.2c-1.2,0.3-2.4,0.7-3.5,1c-1.5,0.4-2.3,1.8-1.9,3.2
		C-889.2,288.6-888.7,289.3-888.1,289.5z"/>
</g>
<rect x="-715.5" y="676.4" class="st1" width="270" height="24.7"/>
<rect x="-1021.7" y="469.4" class="st0" width="270" height="162"/>
<rect x="-885.6" y="513" class="st4" width="170.1" height="22.3"/>
<text transform="matrix(1 0 0 1 -885.5965 524.9145)" class="st2" style="font-family:'Oswald-Medium'; font-size:13.5742px;">ADRIANA GRANIERI    </text>
<circle class="st2" cx="-951.6" cy="549.4" r="36.7"/>
<text transform="matrix(1 0 0 1 -885.5965 537.7417)" class="st1" style="font-family:'Oswald-Light'; font-size:8.3533px;">GRAPHIC DESIGNER</text>
<text transform="matrix(1 0 0 1 -885.5965 537.7417)" class="st6" style="font-family:'Oswald-Light'; font-size:8.3533px;">GRAPHIC DESIGNER</text>
<g>
	<text transform="matrix(1 0 0 1 -885.5965 561.8022)" class="st1" style="font-family:'Oswald-Light'; font-size:8.3533px;">a.granie</text>
	<text transform="matrix(1 0 0 1 -885.5965 561.8022)" class="st7" style="font-family:'Oswald-Light'; font-size:8.3533px;">a.granie</text>
	<text transform="matrix(1 0 0 1 -862.3965 561.8022)" class="st1" style="font-family:'Oswald-Light'; font-size:8.3533px;">ri@</text>
	<text transform="matrix(1 0 0 1 -862.3965 561.8022)" class="st7" style="font-family:'Oswald-Light'; font-size:8.3533px;">ri@</text>
	<text transform="matrix(1 0 0 1 -852.2965 561.8022)" class="st1" style="font-family:'Oswald-Light'; font-size:8.3533px;">h</text>
	<text transform="matrix(1 0 0 1 -852.2965 561.8022)" class="st7" style="font-family:'Oswald-Light'; font-size:8.3533px;">h</text>
	<text transform="matrix(1 0 0 1 -848.6965 561.8022)" class="st1" style="font-family:'Oswald-Light'; font-size:8.3533px;">otmail.com</text>
	<text transform="matrix(1 0 0 1 -848.6965 561.8022)" class="st7" style="font-family:'Oswald-Light'; font-size:8.3533px;">otmail.com</text>
</g>
<g>
	<text transform="matrix(1 0 0 1 -885.5965 573.81)" class="st1" style="font-family:'Oswald-Light'; font-size:8.3533px;">cell: 613.513.3722</text>
	<text transform="matrix(1 0 0 1 -885.5965 573.81)" class="st7" style="font-family:'Oswald-Light'; font-size:8.3533px;">cell: 613.513.3722</text>
</g>
<g>
	<text transform="matrix(1 0 0 1 -885.5965 585.1215)" class="st1" style="font-family:'Oswald-Light'; font-size:8.3533px;">behance.ne</text>
	<text transform="matrix(1 0 0 1 -885.5965 585.1215)" class="st7" style="font-family:'Oswald-Light'; font-size:8.3533px;">behance.ne</text>
	<text transform="matrix(1 0 0 1 -852.5965 585.1215)" class="st1" style="font-family:'Oswald-Light'; font-size:8.3533px;">t</text>
	<text transform="matrix(1 0 0 1 -852.5965 585.1215)" class="st7" style="font-family:'Oswald-Light'; font-size:8.3533px;">t</text>
	<text transform="matrix(1 0 0 1 -849.9965 585.1215)" class="st1" style="font-family:'Oswald-Light'; font-size:8.3533px;">/</text>
	<text transform="matrix(1 0 0 1 -849.9965 585.1215)" class="st7" style="font-family:'Oswald-Light'; font-size:8.3533px;">/</text>
	<text transform="matrix(1 0 0 1 -847.3965 585.1215)" class="st1" style="font-family:'Oswald-Light'; font-size:8.3533px;">agranieri</text>
	<text transform="matrix(1 0 0 1 -847.3965 585.1215)" class="st7" style="font-family:'Oswald-Light'; font-size:8.3533px;">agranieri</text>
</g>
<g>
	<path class="st4" d="M-932.7,533.9c-0.5-0.1-1.2,0.2-1.7,0.5c-0.5,0.3-0.8,0.8-1.1,1.4c-0.9,1.8-1.7,3.7-2.6,5.5
		c-1.1,2.4-0.9,2.8,1.8,2.7c0.5,0,1.1-0.6,1.4-1.1c0.4-0.7,0.6-1.5,0.8-2.3c0.7-1.7,1.3-3.5,2.1-5.4
		C-932.2,534.8-932.3,534-932.7,533.9z"/>
	<path class="st0" d="M-919.6,572.3l-1.8-2.2c0,0-3.4,3.5-7.5-0.4c-0.2-0.3-0.4-0.6-0.6-0.9c-2-4.2-2.4-8.6-1.7-13.1
		c0.2-1.2,0.7-1.9,2.1-2.2c3.2-0.7,6.8-4.8,7.1-7.9c0.1-1.4-0.4-2-1.8-2c-0.8,0-1.6,0.1-2.4,0.1c-1.2,0-1.5-0.6-1.1-1.7
		c0.5-1.4,1-2.8,1.6-4.2c1.3-3.2,2.7-6.3,4-9.5c1.3-3.1,0-6.7-2.7-7.4c-3.3-0.9-6.6-0.8-9.6,0.8c-5.7,3-9.6,7.8-12.2,13.5
		c-2.1,4.5-3.5,9.4-5.5,14c-2.1,4.9-4.3,9.7-6.9,14.4c-1.1,2.1-2.9,4.1-4.9,5.3c-4.4,2.8-9.2,2.9-14.2,1.4c-4.9-1.5-8.6-4.2-12-7.8
		c-1.7-1.8-3.5-3.4-5.5-5c-1.8-1.4-3.9-0.6-4.2,1.7c-0.3,2-0.5,4-0.3,5.9c0.3,2.1,0.6,4.5,1.8,6.2c1.5,2.1,3.9,3.7,6,5.2
		c4.9,3.5,10.4,5.2,16.3,5.8c2,0.2,4.2,0.5,6.1,0.1c1.7-0.4,3.3-0.9,4.9-1.6l0,0c0,0,9.7-2.3,19.1-21.7l0,0c0.5-1.1,1-2.2,1.5-3.3
		c1.2-3.1,1.3-3.1,4.7-2.4c0.2,0,0.3,0.1,0.5,0.1c1,0.1,1.2,0.6,1.1,1.5c-0.2,2-0.4,4.1-0.5,6.1c-0.4,5,0.2,9.5,4.4,13
		c3,2.4,6.1,4.2,10,2.6c1.2-0.5,2.3-1.1,3.4-1.8l-0.6-1.8L-919.6,572.3z M-934,540.7c-0.3,0.8-0.4,1.6-0.8,2.3
		c-0.3,0.5-0.9,1.1-1.4,1.1c-2.7,0.2-2.9-0.3-1.8-2.7c0.9-1.8,1.7-3.7,2.6-5.5c0.2-0.5,0.6-1,1.1-1.4c0.5-0.3,1.2-0.6,1.7-0.5
		c0.3,0.1,0.5,0.9,0.8,1.4C-932.6,537.2-933.3,538.9-934,540.7z"/>
</g>
<path class="st0" d="M-928.3,570.3c0,0-1.3-1.2-2.3-4.3l-1.1-0.2c0,0,0.1,3.1,0.2,3.2c0,0.1,1.2,2.7,1.4,2.9
	c0.2,0.1,1.7-0.2,1.7-0.2L-928.3,570.3z"/>
</svg>
