<?xml version="1.0" encoding="utf-8"?>
<!-- Generator: Adobe Illustrator 19.0.0, SVG Export Plug-In . SVG Version: 6.00 Build 0)  -->
<!DOCTYPE svg PUBLIC "-//W3C//DTD SVG 1.1//EN" "http://www.w3.org/Graphics/SVG/1.1/DTD/svg11.dtd">
<svg version="1.1" id="Layer_1" xmlns="http://www.w3.org/2000/svg" xmlns:xlink="http://www.w3.org/1999/xlink" x="0px" y="0px"
	 viewBox="280 -282 599 604" style="enable-background:new 280 -282 599 604;" xml:space="preserve">
<style type="text/css">
	.st0{fill:none;stroke:#524C56;stroke-width:19;stroke-miterlimit:10;}
	.st1{fill:#524C56;}
</style>
<circle class="st0" cx="579.4" cy="12.2" r="280.1"/>
<g>
	<path class="st1" d="M651,57.7c18.6-11.6,31.1-32.1,31.1-55.7c0-36.3-29.4-65.8-65.8-65.8s-65.8,29.4-65.8,65.8
		c0,23.6,12.5,44.1,31.1,55.7c-37.4,14-64,50-64,92.3h16.4h164.4H715C715,107.7,688.4,71.8,651,57.7z M536,133c6.5-31,32-57,64-63.5
		V48.4c-20-6.8-32.9-24.9-32.9-46.3c0-27.2,22.1-49.3,49.3-49.3c27.2,0,49.4,22.1,49.4,49.3c0,21.4-13.8,39.5-32.8,46.3v21.1
		c32,6.5,57.2,32.5,63.8,63.5H536z"/>
	<path class="st1" d="M470.2,85c6.5-33,31.8-58.3,63.8-64.8V-1c-19-6.8-32.8-24.9-32.8-46.3c0-27.2,22.1-49.3,49.4-49.3
		c16.6,0,31.3,8.3,40.2,20.9c5.4-1.8,11.1-3,16.9-3.6c-11.3-20-32.5-33.7-57.1-33.7c-36.3,0-65.7,29.4-65.7,65.8
		c0,23.6,12.5,43.7,31.1,55.3c-37.4,14-64,49.9-64,91.9h16.4h44.1c2.7-4,5.9-10,9.5-15H470.2z"/>
</g>
</svg>
