<?xml version="1.0" encoding="utf-8"?>
<!-- Generator: Adobe Illustrator 19.0.0, SVG Export Plug-In . SVG Version: 6.00 Build 0)  -->
<!DOCTYPE svg PUBLIC "-//W3C//DTD SVG 1.1//EN" "http://www.w3.org/Graphics/SVG/1.1/DTD/svg11.dtd">
<svg version="1.1" id="Layer_1" xmlns="http://www.w3.org/2000/svg" xmlns:xlink="http://www.w3.org/1999/xlink" x="0px" y="0px"
	 viewBox="280 -282 599 604" style="enable-background:new 280 -282 599 604;" xml:space="preserve">
<style type="text/css">
	.st0{fill:none;stroke:#524C56;stroke-width:19;stroke-miterlimit:10;}
	.st1{fill:#524C56;}
</style>
<circle class="st0" cx="580.3" cy="19" r="280.1"/>
<path class="st1" d="M657-88.2c0-8.3-4.7-13.8-13-13.8H520.9c-8.3,0-17.9,5.4-17.9,13.8v214.8c0,8.3,9.5,16.4,17.9,16.4H644
	c8.3,0,13-8.1,13-16.4V-88.2z M581.7-94h16.1c2.2,0,4,1.8,4,4c0,2.2-1.8,4-4,4h-16.1c-2.2,0-4-1.8-4-4C577.7-92.2,579.5-94,581.7-94
	z M565.6-95.3c2.2,0,4,1.8,4,4c0,2.2-1.8,4-4,4s-4-1.8-4-4C561.6-93.5,563.4-95.3,565.6-95.3z M579.7,130.4c-4.5,0-8-3.6-8-8.1
	c0-4.5,3.6-8.1,8-8.1c4.5,0,8.1,3.6,8.1,8.1C587.8,126.8,584.2,130.4,579.7,130.4z M641,113H519V-72h122V113z"/>
</svg>
