<?xml version="1.0" encoding="utf-8"?>
<!-- Generator: Adobe Illustrator 19.0.0, SVG Export Plug-In . SVG Version: 6.00 Build 0)  -->
<!DOCTYPE svg PUBLIC "-//W3C//DTD SVG 1.1//EN" "http://www.w3.org/Graphics/SVG/1.1/DTD/svg11.dtd">
<svg version="1.1" id="Layer_1" xmlns="http://www.w3.org/2000/svg" xmlns:xlink="http://www.w3.org/1999/xlink" x="0px" y="0px"
	 viewBox="280 -282 599 604" style="enable-background:new 280 -282 599 604;" xml:space="preserve">
<style type="text/css">
	.st0{fill:none;stroke:#524C56;stroke-width:19;stroke-miterlimit:10;}
	.st1{fill:#524C56;}
</style>
<circle class="st0" cx="579.5" cy="19.1" r="280.1"/>
<g>
	<g>
		<path class="st1" d="M626.6,102.2L626.6,102.2c-13.4,8.6-29.4,13.6-46.5,13.6c-36.5,0-67.7-22.6-79.2-54.2c0,0-2.5-13.6-15.8-13.6
			c-16.5,0-13.5,13.6-13.5,13.6c12.4,46.8,56.3,81.3,108.5,81.3c22.4,0,43.1-6.4,60.6-17.2c0,0,10.5-6.8,3.7-17.4
			C637.5,97.7,626.6,102.2,626.6,102.2z M702.1-74h-81.3c-7.5,0-13.6,6.1-13.6,13.6v13.6H553v-13.6c0-7.5-6.1-13.6-13.6-13.6h-81.3
			c-7.5,0-13.6,6.1-13.6,13.6v54.2c0,7.5,6.1,13.6,13.6,13.6h81.3c7.5,0,13.6-6.1,13.6-13.6v-13.6h54.2v13.6
			c0,7.5,6.1,13.6,13.6,13.6h81.3c7.5,0,13.6-6.1,13.6-13.6v-54.2C715.6-68,709.6-74,702.1-74z"/>
	</g>
</g>
</svg>
