<?xml version="1.0" encoding="utf-8"?>
<!-- Generator: Adobe Illustrator 19.0.0, SVG Export Plug-In . SVG Version: 6.00 Build 0)  -->
<!DOCTYPE svg PUBLIC "-//W3C//DTD SVG 1.1//EN" "http://www.w3.org/Graphics/SVG/1.1/DTD/svg11.dtd">
<svg version="1.1" id="Layer_1" xmlns="http://www.w3.org/2000/svg" xmlns:xlink="http://www.w3.org/1999/xlink" x="0px" y="0px"
	 viewBox="280 -282 599 604" style="enable-background:new 280 -282 599 604;" xml:space="preserve">
<style type="text/css">
	.st0{fill:none;stroke:#524C56;stroke-width:19;stroke-miterlimit:10;}
	.st1{fill:#524C56;}
</style>
<circle class="st0" cx="579.5" cy="20.1" r="280.1"/>
<path class="st1" d="M695.6-1.2H580.6v46.1h69c-4.7,27-26.1,39.7-36.3,44.3c-5.8,2.3-11.7,4.8-17.7,5.8
	c-28.1,5.2-52.1-2.9-70.7-24.8c-17.3-21.2-19-43-18.5-53.6c0.8-12.5,4-19.7,4-19.7c10-24.2,25.9-41.1,50.5-47.9
	c24.8-6.8,47.4-2,66.8,15.2C639-47.1,650-58.2,661.5-69.7c-0.9-0.9-1.7-1.7-2.6-2.4c-29.5-24.8-63.2-33.6-101-26.6
	c-37.4,6.9-65.1,27.7-84.3,60.3c-0.4,0.7-0.8,1.4-1,2.1c-27.7,58-1.5,111.4,0.8,116c0.1,0.1,0.1,0.3,0.2,0.4
	c5.2,8,10.1,16.3,16.7,23.3c35.3,37,78.1,47.6,127.1,34.9c16.1-4.2,30.3-12.1,43.5-24.1C711.2,61.9,695.6-1.2,695.6-1.2z"/>
</svg>
