<?xml version="1.0" encoding="utf-8"?>
<!-- Generator: Adobe Illustrator 19.0.0, SVG Export Plug-In . SVG Version: 6.00 Build 0)  -->
<!DOCTYPE svg PUBLIC "-//W3C//DTD SVG 1.1//EN" "http://www.w3.org/Graphics/SVG/1.1/DTD/svg11.dtd">
<svg version="1.1" id="Layer_1" xmlns="http://www.w3.org/2000/svg" xmlns:xlink="http://www.w3.org/1999/xlink" x="0px" y="0px"
	 viewBox="280 -282 599 604" style="enable-background:new 280 -282 599 604;" xml:space="preserve">
<style type="text/css">
	.st0{fill:none;stroke:#524C56;stroke-width:19;stroke-miterlimit:10;}
	.st1{fill:#524C56;stroke:#524C56;stroke-width:3;stroke-miterlimit:10;}
	.st2{fill:#524C56;}
</style>
<circle class="st0" cx="579.5" cy="20" r="280.1"/>
<g>
	<path class="st1" d="M494.3,42.2c-28,0-50.7,22.7-50.7,50.7s22.7,50.7,50.7,50.7c28,0,50.7-22.7,50.7-50.7S522.3,42.2,494.3,42.2z
		 M494.3,126.7c-18.7,0-33.8-15.1-33.8-33.8s15.1-33.8,33.8-33.8c18.7,0,33.8,15.1,33.8,33.8S512.9,126.7,494.3,126.7z"/>
	<path class="st1" d="M646.4,42.2c-28,0-50.7,22.7-50.7,50.7s22.7,50.7,50.7,50.7c28,0,50.7-22.7,50.7-50.7S674.4,42.2,646.4,42.2z
		 M646.4,126.7c-18.7,0-33.8-15.1-33.8-33.8s15.1-33.8,33.8-33.8c18.7,0,33.8,15.1,33.8,33.8S665,126.7,646.4,126.7z"/>
	<path class="st1" d="M629.7,5.8c3.1,3.1,6.7,6.7,15.6,6.7h26.4c4.7,0,8.4-3.8,8.4-8.5s-3.8-8.5-8.4-8.5h-30.3l-43.8-45.8
		c-3.2-3.2-6.2-6.1-10.4-6.1c-5,0-7.4,1.6-10.4,4.6L535-10.2c-3.7,3.8-5.4,6.6-5.3,10.3c-0.1,4.7,0.2,6,3.6,10.3l25.2,26.9v64.1
		c0,4.7,3.8,8.4,8.5,8.4c4.7,0,8.5-3.8,8.5-8.4V41.1c0-9.2-0.8-13.2-0.8-13.2c-0.1-0.1,0.7-0.1,0.6-0.2L548.1,0L587-37.7L629.7,5.8z
		"/>
	<path class="st1" d="M621-59.2c14,0,25.3-11.4,25.3-25.3S635-109.9,621-109.9c-14,0-25.3,11.4-25.3,25.3S607-59.2,621-59.2z
		 M621-93c4.7,0,8.4,3.8,8.4,8.4s-3.8,8.4-8.4,8.4c-4.7,0-8.4-3.8-8.4-8.4S616.3-93,621-93z"/>
</g>
<path class="st2" d="M576.6,26.7c0,0,1.2,1.3,0.9,5L577,43.4l-7.2-8.8c0,0-0.4-6.9,0-7S576.6,26.7,576.6,26.7z"/>
</svg>
